<svg width="120" height="120" viewBox="0 0 120 120" fill="none" xmlns="http://www.w3.org/2000/svg">
<path fill-rule="evenodd" clip-rule="evenodd" d="M105 60C105 84.8528 84.8528 105 60 105C35.1472 105 15 84.8528 15 60C15 35.1472 35.1472 15 60 15C84.8528 15 105 35.1472 105 60ZM110 60C110 87.6142 87.6142 110 60 110C32.3858 110 10 87.6142 10 60C10 32.3858 32.3858 10 60 10C87.6142 10 110 32.3858 110 60ZM41.3411 40.9709C42.3581 39.9539 44.0069 39.9539 45.0239 40.9709L59.8123 55.7593L74.1167 41.455C75.1337 40.438 76.7825 40.438 77.7995 41.455C78.8165 42.472 78.8165 44.1209 77.7995 45.1378L63.4952 59.4422L78.1695 74.1166C79.1865 75.1336 79.1865 76.7824 78.1695 77.7994C77.1525 78.8164 75.5037 78.8164 74.4867 77.7994L59.8123 63.125L44.6539 78.2835C43.6369 79.3005 41.988 79.3005 40.9711 78.2835C39.9541 77.2665 39.9541 75.6176 40.9711 74.6006L56.1295 59.4422L41.3411 44.6538C40.3241 43.6368 40.3241 41.9879 41.3411 40.9709Z" fill="#E83F5B"/>
</svg>
