<svg width="25" height="22" viewBox="0 0 25 22" fill="none" xmlns="http://www.w3.org/2000/svg">
<g clip-path="url(#clip0)">
<path fill-rule="evenodd" clip-rule="evenodd" d="M4.60238 2.58405C4.37606 2.39279 4.07293 2.28695 3.7583 2.28935C3.44366 2.29174 3.14269 2.40217 2.9202 2.59684C2.69771 2.79152 2.57151 3.05488 2.56877 3.33018C2.56604 3.60549 2.68699 3.87072 2.90558 4.06875L19.7056 18.7688C19.9319 18.96 20.235 19.0659 20.5497 19.0635C20.8643 19.0611 21.1653 18.9506 21.3878 18.756C21.6103 18.5613 21.7365 18.2979 21.7392 18.0226C21.7419 17.7473 21.621 17.4821 21.4024 17.2841L19.6348 15.7374C21.5038 14.4334 22.8859 12.6713 23.6044 10.6764C22.0756 6.41655 17.5276 3.3264 12.154 3.3264C10.2729 3.32417 8.41778 3.71055 6.73958 4.4541L4.60358 2.58405H4.60238ZM9.71558 7.05705L11.5324 8.6478C11.9393 8.55325 12.3674 8.55388 12.774 8.64962C13.1805 8.74536 13.5512 8.93286 13.8489 9.19335C14.1466 9.45384 14.3609 9.77817 14.4703 10.1339C14.5797 10.4896 14.5804 10.8643 14.4724 11.2203L16.2892 12.81C16.8304 12.0078 17.0514 11.071 16.9176 10.1469C16.7837 9.22274 16.3025 8.36377 15.5498 7.70509C14.797 7.04641 13.8153 6.62539 12.7592 6.50827C11.703 6.39115 10.6324 6.58457 9.71558 7.0581V7.05705Z" fill="#A4A4A4"/>
<path d="M15.0988 17.7082L11.854 14.868C10.6872 14.804 9.58724 14.3696 8.76048 13.6464C7.93372 12.9232 7.43702 11.9608 7.36361 10.9399L2.95601 7.08325C1.94227 8.13957 1.17683 9.36061 0.703613 10.6764C2.23241 14.9362 6.78161 18.0264 12.154 18.0264C13.1704 18.0264 14.1568 17.9161 15.0988 17.7082Z" fill="#A4A4A4"/>
</g>
<defs>
<clipPath id="clip0">
<rect width="24" height="21" fill="white" transform="translate(0.154053 0.176392)"/>
</clipPath>
</defs>
</svg>
