<svg width="24" height="21" viewBox="0 0 24 21" fill="none" xmlns="http://www.w3.org/2000/svg">
<path d="M12 12.6C12.6365 12.6 13.2469 12.3788 13.697 11.9849C14.1471 11.5911 14.4 11.057 14.4 10.5C14.4 9.94307 14.1471 9.40893 13.697 9.0151C13.2469 8.62127 12.6365 8.40002 12 8.40002C11.3635 8.40002 10.753 8.62127 10.3029 9.0151C9.85283 9.40893 9.59998 9.94307 9.59998 10.5C9.59998 11.057 9.85283 11.5911 10.3029 11.9849C10.753 12.3788 11.3635 12.6 12 12.6Z" fill="#A4A4A4"/>
<path fill-rule="evenodd" clip-rule="evenodd" d="M0.549561 10.5C2.07836 6.24017 6.62636 3.15002 12 3.15002C17.3736 3.15002 21.9216 6.24017 23.4504 10.5C21.9216 14.7599 17.3736 17.85 12 17.85C6.62636 17.85 2.07836 14.7599 0.549561 10.5ZM16.8 10.5C16.8 11.6139 16.2942 12.6822 15.3941 13.4699C14.4939 14.2575 13.273 14.7 12 14.7C10.7269 14.7 9.50602 14.2575 8.60585 13.4699C7.70567 12.6822 7.19996 11.6139 7.19996 10.5C7.19996 9.38612 7.70567 8.31783 8.60585 7.53018C9.50602 6.74252 10.7269 6.30002 12 6.30002C13.273 6.30002 14.4939 6.74252 15.3941 7.53018C16.2942 8.31783 16.8 9.38612 16.8 10.5V10.5Z" fill="#A4A4A4"/>
</svg>
