<svg width="24" height="24" viewBox="0 0 24 24" fill="none" xmlns="http://www.w3.org/2000/svg">
<path d="M18.1818 8.54546C18.1818 6.85772 17.5114 5.2391 16.318 4.04569C15.1245 2.85228 13.5059 2.18182 11.8182 2.18182C10.1304 2.18182 8.51182 2.85228 7.31841 4.04569C6.125 5.2391 5.45454 6.85772 5.45454 8.54546C5.45454 8.88301 5.58863 9.20673 5.82732 9.44541C6.066 9.6841 6.38972 9.81819 6.72727 9.81819C7.06482 9.81819 7.38854 9.6841 7.62723 9.44541C7.86591 9.20673 8 8.88301 8 8.54546C8 7.7903 8.22393 7.05209 8.64348 6.42419C9.06303 5.7963 9.65934 5.30691 10.357 5.01792C11.0547 4.72893 11.8224 4.65332 12.5631 4.80064C13.3037 4.94797 13.9841 5.31162 14.518 5.8456C15.052 6.37958 15.4157 7.05992 15.563 7.80057C15.7103 8.54123 15.6347 9.30893 15.3457 10.0066C15.0567 10.7043 14.5673 11.3006 13.9394 11.7202C13.3116 12.1397 12.5733 12.3636 11.8182 12.3636C11.4806 12.3636 11.1569 12.4977 10.9182 12.7364C10.6795 12.9751 10.5455 13.2988 10.5455 13.6364V16.1818C10.5455 16.5194 10.6795 16.8431 10.9182 17.0818C11.1569 17.3205 11.4806 17.4546 11.8182 17.4546C12.1557 17.4546 12.4795 17.3205 12.7181 17.0818C12.9568 16.8431 13.0909 16.5194 13.0909 16.1818V14.7818C14.5283 14.4884 15.8201 13.7074 16.7478 12.571C17.6755 11.4345 18.1821 10.0125 18.1818 8.54546V8.54546Z" fill="#222B45"/>
<path d="M11.8182 22.5455C12.5211 22.5455 13.0909 21.9756 13.0909 21.2727C13.0909 20.5698 12.5211 20 11.8182 20C11.1153 20 10.5455 20.5698 10.5455 21.2727C10.5455 21.9756 11.1153 22.5455 11.8182 22.5455Z" fill="#222B45"/>
</svg>
