<svg width="20" height="20" viewBox="0 0 20 20" fill="none" xmlns="http://www.w3.org/2000/svg">
<g clip-path="url(#clip0)">
<path d="M7.50244 6.875C7.50244 7.37228 7.3049 7.84919 6.95327 8.20083C6.60164 8.55246 6.12472 8.75 5.62744 8.75C5.13016 8.75 4.65325 8.55246 4.30162 8.20083C3.94999 7.84919 3.75244 7.37228 3.75244 6.875C3.75244 6.37772 3.94999 5.90081 4.30162 5.54917C4.65325 5.19754 5.13016 5 5.62744 5C6.12472 5 6.60164 5.19754 6.95327 5.54917C7.3049 5.90081 7.50244 6.37772 7.50244 6.875V6.875Z" fill="#5C5C66"/>
<path d="M1.875 2.5C1.37772 2.5 0.900805 2.69754 0.549175 3.04917C0.197544 3.40081 0 3.87772 0 4.375L0 15.625C0 16.1223 0.197544 16.5992 0.549175 16.9508C0.900805 17.3025 1.37772 17.5 1.875 17.5H18.125C18.6223 17.5 19.0992 17.3025 19.4508 16.9508C19.8025 16.5992 20 16.1223 20 15.625V4.375C20 3.87772 19.8025 3.40081 19.4508 3.04917C19.0992 2.69754 18.6223 2.5 18.125 2.5H1.875ZM18.125 3.75C18.2908 3.75 18.4497 3.81585 18.5669 3.93306C18.6842 4.05027 18.75 4.20924 18.75 4.375V11.875L14.0313 9.44125C13.914 9.38253 13.7813 9.36216 13.6519 9.38302C13.5224 9.40388 13.4028 9.46492 13.31 9.5575L8.6725 14.195L5.3475 11.98C5.22745 11.9001 5.08345 11.8641 4.93992 11.8783C4.79639 11.8924 4.66217 11.9557 4.56 12.0575L1.2525 15V15.675C1.25101 15.6584 1.25017 15.6417 1.25 15.625V4.375C1.25 4.20924 1.31585 4.05027 1.43306 3.93306C1.55027 3.81585 1.70924 3.75 1.875 3.75H18.125Z" fill="#5C5C66"/>
</g>
<defs>
<clipPath id="clip0">
<rect width="20" height="20" fill="white"/>
</clipPath>
</defs>
</svg>
