<svg width="20" height="20" viewBox="0 0 20 20" fill="none" xmlns="http://www.w3.org/2000/svg">
<path d="M2.72096 2.051L18.076 9.617C18.1597 9.65826 18.2302 9.72214 18.2795 9.8014C18.3288 9.88067 18.3549 9.97215 18.3549 10.0655C18.3549 10.1588 18.3288 10.2503 18.2795 10.3296C18.2302 10.4089 18.1597 10.4727 18.076 10.514L2.71996 18.08C2.63393 18.1223 2.53757 18.1389 2.44235 18.1279C2.34713 18.117 2.25707 18.0789 2.18288 18.0182C2.1087 17.9575 2.05353 17.8768 2.02393 17.7856C1.99434 17.6944 1.99157 17.5967 2.01596 17.504L3.98496 10.07L2.01496 2.628C1.99017 2.53511 1.99268 2.43705 2.02219 2.34555C2.05171 2.25406 2.10697 2.17301 2.18137 2.11212C2.25576 2.05124 2.34614 2.01309 2.44166 2.00224C2.53719 1.9914 2.63381 2.00833 2.71996 2.051H2.72096ZM3.26396 3.434L4.87396 9.516L4.93596 9.504L4.99996 9.5H12C12.1249 9.49977 12.2454 9.54633 12.3377 9.63051C12.4301 9.71468 12.4875 9.83038 12.4988 9.95482C12.5101 10.0793 12.4744 10.2034 12.3987 10.3028C12.3231 10.4023 12.2129 10.4697 12.09 10.492L12 10.5H4.99996C4.96911 10.5001 4.93832 10.4975 4.90796 10.492L3.26496 16.698L16.723 10.066L3.26396 3.434V3.434Z" fill="#A4A4A4"/>
</svg>
