<svg width="24" height="24" viewBox="0 0 24 24" fill="none" xmlns="http://www.w3.org/2000/svg">
<path fill-rule="evenodd" clip-rule="evenodd" d="M7 3C4.79086 3 3 4.79086 3 7C3 9.20914 4.79086 11 7 11H17C19.2091 11 21 9.20914 21 7C21 4.79086 19.2091 3 17 3H7ZM9 7C9 8.10457 8.10457 9 7 9C5.89543 9 5 8.10457 5 7C5 5.89543 5.89543 5 7 5C8.10457 5 9 5.89543 9 7Z" fill="#BAF5C0"/>
<path opacity="0.3" fill-rule="evenodd" clip-rule="evenodd" d="M7 13C4.79086 13 3 14.7909 3 17C3 19.2091 4.79086 21 7 21H17C19.2091 21 21 19.2091 21 17C21 14.7909 19.2091 13 17 13H7ZM19 17C19 18.1046 18.1046 19 17 19C15.8954 19 15 18.1046 15 17C15 15.8954 15.8954 15 17 15C18.1046 15 19 15.8954 19 17Z" fill="#BAF5C0"/>
</svg>
