<svg width="24" height="24" viewBox="0 0 24 24" fill="none" xmlns="http://www.w3.org/2000/svg">
<path opacity="0.3" d="M14.0009 7C14.0009 7.55228 14.4484 8 15.0005 8C15.5525 8 16 7.55228 16 7V6C16 3.79086 14.2099 2 12.0018 2H6.00522C3.79704 2 2.00696 3.79086 2.00696 6L2.00696 18C2.00696 20.2091 3.79704 22 6.00522 22H12.0087C14.2169 22 16.007 20.2091 16.007 18V17C16.007 16.4477 15.5594 16 15.0074 16C14.4553 16 14.0078 16.4477 14.0078 17V18C14.0078 19.1046 13.1128 20 12.0087 20H6.00522C4.90113 20 4.00609 19.1046 4.00609 18L4.00609 6C4.00609 4.89543 4.90113 4 6.00522 4H12.0018C13.1058 4 14.0009 4.89543 14.0009 6V7Z" fill="#222B45"/>
<rect opacity="0.3" x="20" y="11" width="2" height="12" rx="1" transform="rotate(90 20 11)" fill="#222B45"/>
<path d="M17.2929 9.70711C16.9024 9.31658 16.9024 8.68342 17.2929 8.29289C17.6834 7.90237 18.3166 7.90237 18.7071 8.29289L21.7071 11.2929C22.0976 11.6834 22.0976 12.3166 21.7071 12.7071L18.7071 15.7071C18.3166 16.0976 17.6834 16.0976 17.2929 15.7071C16.9024 15.3166 16.9024 14.6834 17.2929 14.2929L19.5858 12L17.2929 9.70711Z" fill="#222B45"/>
</svg>
