<svg width="300" height="230" viewBox="0 0 300 230" fill="none" xmlns="http://www.w3.org/2000/svg">
<path d="M203.15 82.3261H121.817C119.528 82.3261 117.673 80.5446 117.673 78.3467V3.97952C117.673 1.78165 119.528 0 121.817 0H203.15C205.438 0 207.293 1.78165 207.293 3.97952V78.3467C207.293 80.5446 205.438 82.3261 203.15 82.3261Z" fill="#89AEFF"/>
<path d="M168.415 11.917H129.825C129.138 11.917 128.581 11.3822 128.581 10.7225C128.581 10.0629 129.138 9.5282 129.825 9.5282H168.415C169.102 9.5282 169.659 10.0629 169.659 10.7225C169.659 11.3822 169.102 11.917 168.415 11.917Z" fill="#D2DCFF"/>
<path d="M156.009 17.8754H129.825C129.138 17.8754 128.581 17.3407 128.581 16.681C128.581 16.0214 129.138 15.4866 129.825 15.4866H156.009C156.696 15.4866 157.253 16.0214 157.253 16.681C157.252 17.3407 156.696 17.8754 156.009 17.8754Z" fill="#D2DCFF"/>
<path d="M136.366 27.6389H129.469C128.979 27.6389 128.581 27.2571 128.581 26.7858C128.581 26.3146 128.979 25.9327 129.469 25.9327H136.366C136.856 25.9327 137.254 26.3146 137.254 26.7858C137.254 27.2571 136.856 27.6389 136.366 27.6389Z" fill="#6277D7"/>
<path d="M186.966 56.9347H165.654C165.163 56.9347 164.766 56.5529 164.766 56.0816V52.6349C164.766 52.1637 165.163 51.7819 165.654 51.7819H186.966C187.456 51.7819 187.854 52.1637 187.854 52.6349V56.0816C187.854 56.5529 187.456 56.9347 186.966 56.9347Z" fill="#D2DCFF"/>
<path d="M195.553 66.3009H165.653C165.163 66.3009 164.765 65.9191 164.765 65.4479V62.0011C164.765 61.5299 165.163 61.1481 165.653 61.1481H195.553C196.044 61.1481 196.442 61.5299 196.442 62.0011V65.4479C196.442 65.9191 196.044 66.3009 195.553 66.3009Z" fill="#D2DCFF"/>
<path d="M141.854 71.8616C141.854 70.983 142.595 70.2704 143.511 70.2704C137.063 70.2704 131.818 65.233 131.818 59.0412C131.818 52.8493 137.063 47.812 143.511 47.812C149.958 47.812 155.203 52.8493 155.203 59.0412C155.203 58.1626 155.945 57.4501 156.86 57.4501C157.775 57.4501 158.517 58.1621 158.517 59.0412C158.517 51.0948 151.786 44.6301 143.511 44.6301C135.237 44.6301 128.506 51.0948 128.506 59.0412C128.506 66.9876 135.237 73.4523 143.511 73.4523C142.595 73.4528 141.854 72.7406 141.854 71.8616Z" fill="#D2DCFF"/>
<path d="M156.86 57.4504C155.945 57.4504 155.203 58.1625 155.203 59.0415C155.203 65.2333 149.958 70.2707 143.511 70.2707C142.596 70.2707 141.854 70.9834 141.854 71.862C141.854 72.7405 142.595 73.4532 143.511 73.4532C151.785 73.4532 158.516 66.9879 158.516 59.042C158.516 58.1625 157.775 57.4504 156.86 57.4504Z" fill="#6277D7"/>
<path d="M55.7022 193.944H37.5945C36.226 193.944 35.1166 192.879 35.1166 191.564V147.424C35.1166 146.109 36.226 145.044 37.5945 145.044H55.7022V193.944Z" fill="#86A2E2"/>
<path d="M107.904 193.944H55.7021V145.044H107.904C109.272 145.044 110.382 146.109 110.382 147.424V191.564C110.382 192.879 109.272 193.944 107.904 193.944Z" fill="#AEC3FF"/>
<path d="M104.682 152.068H61.4017V167.662H104.682V152.068Z" fill="#D2DCFF"/>
<path d="M104.682 171.325H61.4017V186.92H104.682V171.325Z" fill="#D2DCFF"/>
<path d="M90.8583 164.754H75.2256C74.9077 164.754 74.6496 164.506 74.6496 164.201V163.977C74.6496 163.672 74.9071 163.424 75.2256 163.424H90.8583C91.1763 163.424 91.4344 163.672 91.4344 163.977V164.201C91.4344 164.506 91.1768 164.754 90.8583 164.754Z" fill="#AEC3FF"/>
<path d="M90.8583 184.012H75.2256C74.9077 184.012 74.6496 183.764 74.6496 183.459V183.236C74.6496 182.93 74.9071 182.683 75.2256 182.683H90.8583C91.1763 182.683 91.4344 182.93 91.4344 183.236V183.459C91.4344 183.764 91.1768 184.012 90.8583 184.012Z" fill="#AEC3FF"/>
<path d="M42.1732 193.944L41.362 199.462L36.8728 229.999H35.1166L38.1144 199.363L38.6447 193.944H42.1732Z" fill="#D2DCFF"/>
<path d="M63.1126 193.944L62.2082 200.097L57.8122 229.999H56.0565L58.9918 199.999L59.5845 193.944H63.1126Z" fill="#D2DCFF"/>
<path d="M110.382 229.999H108.626L104.419 201.383L103.325 193.944H106.854L107.591 201.48L110.382 229.999Z" fill="#D2DCFF"/>
<path d="M89.4424 229.999H87.6862L83.3854 200.743L82.3863 193.944H85.9144L86.5893 200.841L89.4424 229.999Z" fill="#D2DCFF"/>
<path d="M38.6447 193.944H42.1732L41.362 199.462L38.1144 199.363L38.6447 193.944Z" fill="#AEC3FF"/>
<path d="M59.5845 193.944H63.1126L62.2082 200.097L58.9918 199.999L59.5845 193.944Z" fill="#AEC3FF"/>
<path d="M85.9144 193.944L86.5893 200.841L83.3854 200.743L82.3863 193.944H85.9144Z" fill="#AEC3FF"/>
<path d="M107.591 201.48L104.419 201.383L103.325 193.944H106.854L107.591 201.48Z" fill="#AEC3FF"/>
<path d="M267.064 155.584V154.894C267.064 154.68 266.884 154.507 266.661 154.507H249.969C249.127 154.507 248.445 155.163 248.445 155.971V157.149C248.445 157.958 249.127 158.614 249.969 158.614H266.661C266.884 158.614 267.064 158.44 267.064 158.227V157.536C267.064 157.323 266.884 157.15 266.661 157.15H250.583C250.244 157.15 249.969 156.886 249.969 156.561C249.969 156.236 250.244 155.972 250.583 155.972H266.661C266.884 155.971 267.064 155.798 267.064 155.584Z" fill="#6277D7"/>
<path d="M266.343 155.971V157.149H250.583C250.244 157.149 249.969 156.885 249.969 156.56C249.969 156.235 250.244 155.971 250.583 155.971H266.343Z" fill="#D2DCFF"/>
<path d="M265.872 151.477V150.786C265.872 150.572 265.691 150.399 265.469 150.399H251.162C250.319 150.399 249.637 151.055 249.637 151.863V153.041C249.637 153.85 250.319 154.505 251.162 154.505H265.469C265.691 154.505 265.872 154.332 265.872 154.119V153.428C265.872 153.214 265.691 153.041 265.469 153.041H251.775C251.437 153.041 251.162 152.777 251.162 152.452C251.162 152.127 251.437 151.863 251.775 151.863H265.469C265.691 151.864 265.872 151.691 265.872 151.477Z" fill="#FE9ECC"/>
<path d="M265.341 151.864V153.042H251.775C251.437 153.042 251.162 152.778 251.162 152.453C251.162 152.128 251.437 151.864 251.775 151.864H265.341Z" fill="#FFD9E8"/>
<path d="M253.745 161.324L244.9 230H243.144L251.989 161.324H253.745Z" fill="#D2DCFF"/>
<path d="M276.985 230H275.229L267.662 171.246L266.384 161.324H268.14L269.4 171.105L276.985 230Z" fill="#D2DCFF"/>
<path d="M165.678 161.324L163.312 179.697L156.834 230H155.078L161.538 179.841L163.922 161.324H165.678Z" fill="#D2DCFF"/>
<path d="M188.918 230H187.162L180.504 178.306L178.318 161.324H180.074L182.242 178.165L188.918 230Z" fill="#D2DCFF"/>
<path d="M163.922 161.324H165.678L163.312 179.697L161.538 179.841L163.922 161.324Z" fill="#AEC3FF"/>
<path d="M180.074 161.324L182.242 178.165L180.504 178.306L178.318 161.324H180.074Z" fill="#AEC3FF"/>
<path d="M269.4 171.105L267.662 171.246L266.384 161.324H268.14L269.4 171.105Z" fill="#AEC3FF"/>
<path d="M273.031 161.324H183.235V158.614H273.031C273.68 158.614 274.205 159.119 274.205 159.741V160.196C274.205 160.819 273.68 161.324 273.031 161.324Z" fill="#D2DCFF"/>
<path d="M183.235 161.324H159.475C158.827 161.324 158.302 160.819 158.302 160.196V159.741C158.302 159.119 158.827 158.614 159.475 158.614H183.235V161.324Z" fill="#86A2E2"/>
<path d="M183.215 152.023H191.092C191.48 152.023 191.781 152.349 191.735 152.719L191.069 158.065C191.03 158.378 190.754 158.613 190.426 158.613H183.881C183.553 158.613 183.277 158.378 183.238 158.065L182.572 152.719C182.525 152.349 182.826 152.023 183.215 152.023Z" fill="#D2DCFF"/>
<path d="M189.857 149.842V147.411L188.343 150.174V145.687L187.153 148.513L185.964 145.687V150.174L184.449 147.411V149.842L182.242 146.435L183.215 152.023H187.153H191.092L192.064 146.435L189.857 149.842Z" fill="#6277D7"/>
<path d="M246.66 151.67H197.382L202.876 123.228H252.154L246.66 151.67Z" fill="#D2DCFF"/>
<path d="M221.779 139.108H227.314L234.6 158.614H224.932L221.779 139.108Z" fill="#86A2E2"/>
<path d="M221.58 157.361H205.131C204.831 157.361 204.589 157.595 204.589 157.882V158.093C204.589 158.38 204.832 158.613 205.131 158.613H221.58C221.879 158.613 222.122 158.38 222.122 158.093V157.882C222.122 157.594 221.879 157.361 221.58 157.361Z" fill="#86A2E2"/>
<path d="M221.779 139.108V151.67H223.809L221.779 139.108Z" fill="#AEC3FF"/>
<path d="M110.047 78.77C103.236 79.8604 94.7486 77.4257 93.6844 75.8755C91.2184 79.4846 89.9654 79.3717 89.9654 79.3717V82.0783L89.4086 81.5436C89.2369 81.1703 88.9642 80.8004 88.5563 80.8004C86.3135 80.8004 86.1569 86.7914 89.9316 87.1378C90.006 87.3726 90.083 87.592 90.1616 87.7909V97.3799H98.6758V93.6084C99.2482 93.7593 99.7966 93.8457 100.3 93.8457C103.657 93.8457 109.377 89.1052 110.026 81.5436C110.064 80.1163 110.047 78.77 110.047 78.77Z" fill="#FCBEB7"/>
<path d="M99.7128 68.5068C93.841 68.5068 92.6666 71.5142 92.6666 71.5142C90.1611 71.5142 86.3249 75.913 88.6348 80.7999L88.6468 80.8114L89.9659 82.0783V79.3717C89.9659 79.3717 91.2184 79.4846 93.6849 75.8755C94.7491 77.4262 103.236 79.8604 110.048 78.77C110.048 78.77 110.065 80.1163 110.026 81.5431C110.026 81.5446 110.026 81.5461 110.026 81.5476C112.57 74.4802 107.464 68.5068 99.7128 68.5068Z" fill="#311643"/>
<path d="M97.1881 82.3667C96.9284 82.3667 96.7181 82.1647 96.7181 81.9153V81.0728C96.7181 80.8234 96.9284 80.6216 97.1881 80.6216C97.4477 80.6216 97.6579 80.8234 97.6579 81.0728V81.9153C97.6574 82.1647 97.4472 82.3667 97.1881 82.3667Z" fill="#311643"/>
<path d="M105.898 82.3667C105.638 82.3667 105.428 82.1647 105.428 81.9153V81.0728C105.428 80.8234 105.638 80.6216 105.898 80.6216C106.158 80.6216 106.368 80.8234 106.368 81.0728V81.9153C106.367 82.1647 106.157 82.3667 105.898 82.3667Z" fill="#311643"/>
<path d="M100.642 88.8739C99.8034 88.8739 99.2326 88.571 98.8866 88.2952C98.4505 87.9474 98.2694 87.568 98.2616 87.552C98.2127 87.4481 98.2611 87.3257 98.3693 87.2787C98.4775 87.2318 98.6045 87.2781 98.6539 87.3816C98.6784 87.4326 99.2737 88.632 101.004 88.4396C101.122 88.4266 101.229 88.5076 101.242 88.6215C101.256 88.7355 101.171 88.8374 101.053 88.8504C100.91 88.8664 100.772 88.8739 100.642 88.8739Z" fill="#311643"/>
<path d="M94.069 87.348C95.3519 87.348 96.3919 86.3492 96.3919 85.1171C96.3919 83.8851 95.3519 82.8864 94.069 82.8864C92.7861 82.8864 91.7461 83.8851 91.7461 85.1171C91.7461 86.3492 92.7861 87.348 94.069 87.348Z" fill="#F49795"/>
<path d="M109.784 83.2657C109.489 84.7639 108.996 86.1296 108.372 87.3455C107.144 87.2875 106.167 86.312 106.167 85.1176C106.167 83.8858 107.207 82.8873 108.489 82.8873C108.969 82.8868 109.414 83.0263 109.784 83.2657Z" fill="#F49795"/>
<path d="M105.898 78.3331C104.202 78.3331 102.802 79.5715 102.625 81.1556C101.703 80.7389 100.889 80.9648 100.46 81.1542C100.283 79.5705 98.8834 78.3326 97.1881 78.3326C95.373 78.3326 93.8967 79.7509 93.8967 81.4935C93.8967 83.2361 95.3736 84.6543 97.1881 84.6543C98.962 84.6543 100.412 83.2991 100.476 81.61C100.749 81.4616 101.625 81.0772 102.609 81.6124C102.675 83.3001 104.124 84.6538 105.897 84.6538C107.712 84.6538 109.189 83.2356 109.189 81.493C109.189 79.7504 107.713 78.3331 105.898 78.3331ZM97.1881 84.2416C95.6108 84.2416 94.3271 83.0092 94.3271 81.494C94.3271 79.9793 95.6103 78.7465 97.1881 78.7465C98.7658 78.7465 100.049 79.9788 100.049 81.494C100.048 83.0092 98.7653 84.2416 97.1881 84.2416ZM105.898 84.2416C104.321 84.2416 103.037 83.0092 103.037 81.494C103.037 79.9793 104.32 78.7465 105.898 78.7465C107.476 78.7465 108.759 79.9788 108.759 81.494C108.759 83.0092 107.475 84.2416 105.898 84.2416Z" fill="white"/>
<path d="M98.6753 97.3794V93.6077C96.7499 93.0995 94.5582 91.8547 92.9107 90.6678L98.6753 97.3794Z" fill="#F9AFAB"/>
<path d="M119.031 219.106H110.013L101.267 174.434L94.8511 155.073L79.3188 219.106H70.3014L78.7032 147.267H112.017L119.031 219.106Z" fill="#6277D7"/>
<path d="M110.729 222.587V228.707C110.729 229.421 111.332 229.999 112.075 229.999H130.149C130.321 229.999 130.461 229.866 130.461 229.701V228.522C130.461 228.007 130.154 227.537 129.671 227.313L119.479 222.588H110.729V222.587Z" fill="#2F3D6C"/>
<path d="M78.3379 222.587V228.707C78.3379 229.421 77.7353 229.999 76.9922 229.999H58.9179C58.7462 229.999 58.6068 229.866 58.6068 229.701V228.522C58.6068 228.007 58.9138 227.537 59.3967 227.313L69.588 222.588H78.3379V222.587Z" fill="#2F3D6C"/>
<path d="M110.013 219.106L110.693 222.587H119.479L119.031 219.106H110.013Z" fill="#FCBEB7"/>
<path d="M70.3014 219.106L69.588 222.587H78.3379L79.3188 219.106H70.3014Z" fill="#FCBEB7"/>
<path d="M78.5231 148.808L112.347 150.643L112.017 147.267H78.7032" fill="#4A5EA3"/>
<path d="M98.6644 94.1615L111.553 99.5337C112.497 99.924 113.302 100.57 113.87 101.392L119.03 108.86L111.754 115.027L109.809 113.432L112.016 147.268H78.7027L80.7441 125.205L80.2913 113.432L78.5622 115.087L70.8749 109.411L75.0055 102.946C76.027 101.348 77.5038 100.062 79.261 99.2434L90.1642 94.161C90.1652 94.1615 95.1098 97.2779 98.6644 94.1615Z" fill="#89AEFF"/>
<path d="M101.048 95.155C99.3262 96.4918 97.1979 97.2174 94.9531 97.2174C92.5756 97.2174 90.3281 96.4029 88.5568 94.9111L88.2206 95.068C90.0711 96.6712 92.4418 97.5487 94.9526 97.5487C97.3374 97.5487 99.5958 96.7576 101.402 95.3034L101.048 95.155Z" fill="white"/>
<path d="M78.8484 100.299C78.8484 101.818 77.5662 103.048 75.9848 103.048C75.6533 103.048 75.3359 102.994 75.0399 102.895C75.9541 101.484 77.2243 100.321 78.7292 99.5112C78.8062 99.7611 78.8484 100.025 78.8484 100.299Z" fill="#4A62D3"/>
<path d="M114.635 102.499C114.243 102.692 113.8 102.8 113.33 102.8C111.749 102.8 110.467 101.57 110.467 100.051C110.467 99.7346 110.522 99.4303 110.625 99.1475L111.553 99.5342C112.497 99.9245 113.302 100.571 113.87 101.393L114.635 102.499Z" fill="#4A62D3"/>
<path d="M80.5786 179.986C82.9625 179.986 84.895 178.13 84.895 175.84C84.895 173.551 82.9625 171.695 80.5786 171.695C78.1947 171.695 76.2622 173.551 76.2622 175.84C76.2622 178.13 78.1947 179.986 80.5786 179.986Z" fill="#4A5EA3"/>
<path d="M109.374 179.986C111.758 179.986 113.69 178.13 113.69 175.84C113.69 173.551 111.758 171.695 109.374 171.695C106.99 171.695 105.057 173.551 105.057 175.84C105.057 178.13 106.99 179.986 109.374 179.986Z" fill="#4A5EA3"/>
<path d="M155.839 100.768L155.478 100.71L155.421 100.498C155.315 100.097 154.953 99.8085 154.524 99.7806L149.453 99.4518L145.926 98.0739L147.895 95.7137C148.222 95.3229 148.176 94.7557 147.791 94.4174L143.636 97.4918C143.229 97.7937 142.89 98.173 142.643 98.6058L141.342 100.881L141.349 100.889L122.352 113.64L119.03 108.86L111.754 115.027L120.862 122.762C121.403 123.21 122.206 123.202 122.736 122.743L144.119 104.266L148.211 104.64C149.134 104.724 150.066 104.635 150.954 104.377L153.126 103.747C153.495 103.64 153.688 103.25 153.541 102.908L155.088 102.622C155.378 102.569 155.596 102.34 155.627 102.059L155.653 101.819H155.748C156.052 101.819 156.299 101.582 156.299 101.29C156.3 101.031 156.105 100.81 155.839 100.768Z" fill="#FCBEB7"/>
<path d="M86.108 144.685L82.7199 143.233C82.4852 143.132 82.3031 142.944 82.2156 142.712L81.7244 141.414L83.4364 141.817L83.9823 142.943C84.166 143.322 84.6301 143.492 85.0303 143.327L84.3174 141.26C84.1842 140.931 83.9271 140.662 83.5972 140.506L80.0197 138.817L73.8482 119.592L78.5632 115.087L70.8759 109.412L66.381 116.924C65.7628 117.957 65.6879 119.209 66.1776 120.303L78.6527 147.701L81.1286 147.81C81.4262 147.824 81.7072 147.679 81.8602 147.434L82.1298 147.001L83.4328 147.104C83.7117 147.126 83.9828 147.008 84.1493 146.791L84.4558 146.394L84.6384 146.441C85.1375 146.567 85.6615 146.348 85.9056 145.911L86.81 146.201C87.015 145.598 86.7116 144.944 86.108 144.685Z" fill="#FCBEB7"/>
<path d="M69.0068 118.661C69.0068 120.015 67.9999 121.144 66.6652 121.392L66.1776 120.302C65.6874 119.209 65.7629 117.956 66.3811 116.924L66.9373 115.994C68.1341 116.336 69.0068 117.401 69.0068 118.661Z" fill="#F9AFAB"/>
<path d="M124.791 120.966L122.736 122.743C122.206 123.203 121.403 123.211 120.863 122.762L118.85 121.093C119.431 120.071 120.56 119.377 121.859 119.377C123.102 119.377 124.191 120.014 124.791 120.966Z" fill="#F9AFAB"/>
<path d="M214.928 82.9273V97.3619H222.589H229.637H230.124H239.667C239.667 97.3619 239.667 86.2776 239.667 79.8345C239.667 72.9035 233.859 71.6982 233.859 71.6982C233.859 71.6982 231.747 68.4418 225.603 68.4418C218.209 68.4418 213.279 72.7915 213.279 78.1608C213.279 80.6265 214.323 82.2142 214.928 82.9273ZM215.053 80.5321C215.988 80.3292 218.616 78.1053 218.616 75.8244C220.674 79.0933 226.962 83.7968 236.313 80.9258V80.9263C236.342 80.9223 236.372 80.9198 236.402 80.9198C238.627 80.9198 238.782 86.8612 235.038 87.2046C234.983 87.379 234.927 87.5445 234.869 87.6999V97.3619H226.425V93.6063C225.836 93.7657 225.272 93.8571 224.756 93.8571C221.263 93.8571 215.191 88.6829 215.053 80.5321Z" fill="#311643"/>
<path d="M226.425 94.4894V93.6063C225.836 93.7657 225.272 93.8572 224.756 93.8572C221.263 93.8572 215.191 88.6828 215.053 80.5315C215.988 80.3286 218.617 78.1048 218.617 75.824C220.674 79.0928 226.963 83.7964 236.314 80.9253V80.9258C236.343 80.9218 236.372 80.9194 236.403 80.9194C238.627 80.9194 238.782 86.8608 235.039 87.2041C234.984 87.3785 234.927 87.5439 234.869 87.6993V94.199L241.483 97.193V105.032H219.506V96.4863L226.425 94.4894Z" fill="#FCBEB7"/>
<path d="M219.506 105.032V96.4868L226.425 94.4899V93.6068C228.381 93.0766 230.605 91.7923 232.238 90.5939L219.506 105.032Z" fill="#F9AFAB"/>
<path d="M230.934 87.4136C232.207 87.4136 233.238 86.4231 233.238 85.2013C233.238 83.9794 232.207 82.9889 230.934 82.9889C229.662 82.9889 228.631 83.9794 228.631 85.2013C228.631 86.4231 229.662 87.4136 230.934 87.4136Z" fill="#F49795"/>
<path d="M215.349 83.3647C215.641 84.8504 216.131 86.2052 216.749 87.4106C217.967 87.3526 218.936 86.3856 218.936 85.2013C218.936 83.9794 217.905 82.9894 216.633 82.9894C216.158 82.9889 215.716 83.1273 215.349 83.3647Z" fill="#F49795"/>
<path d="M215.981 81.6079C215.981 83.3365 217.445 84.7427 219.245 84.7427C221.004 84.7427 222.441 83.4 222.507 81.7264C223.489 81.1911 224.351 81.5729 224.622 81.7228C224.685 83.3984 226.124 84.7427 227.883 84.7427C229.683 84.7427 231.147 83.3365 231.147 81.6079C231.147 79.8793 229.683 78.473 227.883 78.473C226.202 78.473 224.813 79.7005 224.638 81.2711C224.212 81.0832 223.405 80.8593 222.49 81.2726C222.316 79.7014 220.927 78.473 219.245 78.473C217.445 78.4725 215.981 79.8793 215.981 81.6079ZM225.046 81.6079C225.046 80.1057 226.319 78.8833 227.884 78.8833C229.448 78.8833 230.721 80.1057 230.721 81.6079C230.721 83.1106 229.449 84.333 227.884 84.333C226.319 84.3325 225.046 83.1101 225.046 81.6079ZM216.408 81.6079C216.408 80.1057 217.681 78.8833 219.246 78.8833C220.811 78.8833 222.083 80.1057 222.083 81.6079C222.083 83.1106 220.811 84.333 219.246 84.333C217.681 84.333 216.408 83.1101 216.408 81.6079Z" fill="white"/>
<path d="M219.243 82.473C219.5 82.473 219.709 82.2727 219.709 82.0258V81.1897C219.709 80.9428 219.5 80.7424 219.243 80.7424C218.986 80.7424 218.778 80.9428 218.778 81.1897V82.0258C218.778 82.2727 218.986 82.473 219.243 82.473Z" fill="#311643"/>
<path d="M227.742 82.473C227.999 82.473 228.208 82.2727 228.208 82.0258V81.1897C228.208 80.9428 227.999 80.7424 227.742 80.7424C227.484 80.7424 227.276 80.9428 227.276 81.1897V82.0258C227.276 82.2727 227.485 82.473 227.742 82.473Z" fill="#311643"/>
<path d="M224.416 88.9261C225.248 88.9261 225.814 88.6258 226.157 88.3525C226.589 88.0076 226.769 87.6313 226.777 87.6153C226.825 87.5118 226.777 87.3909 226.669 87.3439C226.562 87.2975 226.436 87.3435 226.387 87.4459C226.363 87.4964 225.772 88.6857 224.057 88.4953C223.939 88.4823 223.833 88.5628 223.82 88.6758C223.806 88.7882 223.89 88.8902 224.008 88.9032C224.151 88.9192 224.287 88.9261 224.416 88.9261Z" fill="#311643"/>
<path d="M210.491 219.067L209.617 222.555L200.089 225.428L201.459 219.067H210.491Z" fill="#FCBEB7"/>
<path d="M242.595 219.067L242.334 223.375L242.928 223.585L243.319 225.43L233.8 222.555L233.563 219.067H242.595Z" fill="#FCBEB7"/>
<path d="M192.74 226.783L200.486 223.585L200.089 225.429L209.618 222.555V225.177C209.618 226.1 209.116 226.936 208.326 227.405L207.507 229.655C207.436 229.85 207.245 229.98 207.03 229.98C206.751 229.98 206.525 229.763 206.525 229.495V228.032L200.013 229.98H193.425C192.467 229.98 191.691 229.234 191.691 228.314C191.691 227.648 192.103 227.046 192.74 226.783Z" fill="#2F3D6C"/>
<path d="M233.792 225.151L233.8 222.529L243.319 225.43L242.928 223.585L250.664 226.805C251.3 227.07 251.711 227.673 251.709 228.338C251.707 229.258 250.928 230.002 249.97 229.999L243.382 229.98L236.648 227.945L236.643 229.477C236.642 229.745 236.416 229.962 236.137 229.961C235.922 229.96 235.732 229.829 235.661 229.635L234.773 227.171C234.163 226.682 233.79 225.949 233.792 225.151Z" fill="#2F3D6C"/>
<path d="M241.154 131.353L244.668 145.646C245.683 149.774 246.083 154.019 245.856 158.254L242.594 219.067H233.562L229.706 155.954L210.49 219.067H201.458L217.361 131.352H241.154V131.353Z" fill="#6277D7"/>
<path d="M229.203 101.166C227.599 101.166 226.317 99.6826 225.452 98.1804H234.598C233.203 99.6786 231.292 101.166 229.203 101.166Z" fill="white"/>
<path d="M212.091 101.281C213.501 99.1733 215.645 97.6157 218.14 96.886L224.201 95.1135C224.201 95.3584 224.644 96.7776 225.452 98.1804C226.317 99.6827 227.599 101.166 229.203 101.166C231.292 101.166 233.203 99.6787 234.598 98.1804C236.013 96.6602 236.897 95.129 236.897 95.129L243.194 97.9306C245.771 99.0775 247.669 101.284 248.354 103.931L253 121.873L244.457 121.875L242.361 114.908L241.154 131.352H217.362L215.201 113.85L209.533 118.745L204.832 112.132L212.091 101.281Z" fill="#FE9ECC"/>
<path d="M177.801 94.4894L178.163 94.4314L178.219 94.2185C178.326 93.8177 178.688 93.5279 179.118 93.4999L184.197 93.1705L187.731 91.7907L185.758 89.4265C185.431 89.0347 185.477 88.4665 185.863 88.1282L190.024 91.2075C190.432 91.5094 190.771 91.8897 191.019 92.3235L192.163 94.3249L192.168 94.3185L209.533 118.746L207.147 120.84C205.175 122.57 202.026 122.008 200.833 119.712L189.552 97.9926L185.441 98.3684C184.516 98.4528 183.583 98.3633 182.694 98.1055L180.517 97.4738C180.148 97.3664 179.955 96.9766 180.102 96.6338L178.552 96.3474C178.263 96.294 178.044 96.0645 178.012 95.7832L177.986 95.5423H177.891C177.587 95.5423 177.34 95.3049 177.34 95.0126C177.34 94.7527 177.535 94.5319 177.801 94.4894Z" fill="#FCBEB7"/>
<path d="M204.831 112.132L211.433 117.104L209.533 118.746L204.831 112.132Z" fill="#FF78BA"/>
<path d="M228.968 103.303C230.291 103.303 231.636 102.916 232.968 102.154C234.026 101.549 235.077 100.707 236.093 99.6502C237.817 97.8577 238.864 96.0272 238.874 96.0087L238.524 95.8528C238.513 95.8707 237.495 97.6438 235.802 99.4029C234.812 100.431 233.791 101.249 232.766 101.835C231.496 102.561 230.218 102.929 228.968 102.929C227.786 102.929 226.722 102.55 225.805 101.802C225.063 101.198 224.412 100.35 223.871 99.2859C222.944 97.4594 222.659 95.5828 222.656 95.5643L222.28 95.6743C222.291 95.7522 222.568 97.5704 223.522 99.4494C224.086 100.561 224.77 101.448 225.553 102.086C226.543 102.894 227.692 103.303 228.968 103.303Z" fill="white"/>
<path d="M214.791 179.883C217.178 179.883 219.114 178.024 219.114 175.731C219.114 173.438 217.178 171.579 214.791 171.579C212.403 171.579 210.467 173.438 210.467 175.731C210.467 178.024 212.403 179.883 214.791 179.883Z" fill="#4A5EA3"/>
<path d="M237.441 179.883C239.829 179.883 241.764 178.024 241.764 175.731C241.764 173.438 239.829 171.579 237.441 171.579C235.053 171.579 233.118 173.438 233.118 175.731C233.118 178.024 235.053 179.883 237.441 179.883Z" fill="#4A5EA3"/>
<path d="M212.676 100.488C213.112 100.764 213.634 100.924 214.195 100.924C215.719 100.924 216.956 99.7371 216.956 98.2724C216.956 97.957 216.899 97.6547 216.793 97.3744C215.182 98.0775 213.769 99.1445 212.676 100.488Z" fill="#FF78BA"/>
<path d="M243.157 99.7765C243.157 101.241 244.392 102.429 245.918 102.429C246.531 102.429 247.096 102.237 247.554 101.913C246.693 100.341 245.361 99.0365 243.712 98.1809C243.363 98.6247 243.157 99.1773 243.157 99.7765Z" fill="#FF78BA"/>
<path d="M234.467 136.341L214.637 135.622C214.28 135.609 214.002 135.321 214.015 134.979L215.076 108.003C215.089 107.66 215.39 107.393 215.746 107.405L235.576 108.124C235.933 108.137 236.211 108.426 236.198 108.768L235.137 135.744C235.124 136.087 234.824 136.354 234.467 136.341Z" fill="#4A5EA3"/>
<path d="M234.53 134.887L214.799 136.933C214.445 136.969 214.126 136.723 214.087 136.382L211.068 109.543C211.03 109.202 211.287 108.896 211.642 108.859L231.372 106.813C231.727 106.776 232.046 107.022 232.084 107.364L235.102 134.203C235.141 134.544 234.884 134.85 234.53 134.887Z" fill="#4A5EA3"/>
<path d="M211.057 124.161C211.073 123.8 211.24 123.461 211.52 123.22L211.891 122.901L211.908 122.733C211.973 122.097 212.514 121.604 213.178 121.572L215.576 121.46L214.312 119.586C214.228 119.461 214.202 119.307 214.24 119.162C214.334 118.81 214.758 118.648 215.078 118.842L221.907 122.98L244.457 121.876L253 121.874L254.03 125.371C254.834 128.102 252.513 130.75 249.574 130.456L221.907 127.688L214.039 128.85L213.689 128.759C213.086 128.602 212.665 128.079 212.659 127.479L212.654 127.013L212.641 127.007C212.125 126.785 211.8 126.287 211.817 125.744L211.826 125.47L211.537 125.229C211.216 124.961 211.039 124.568 211.057 124.161Z" fill="#FCBEB7"/>
<path d="M248.873 128.134C248.873 129.122 249.416 129.988 250.231 130.473C252.378 130.37 254.06 128.7 254.183 126.709C253.681 125.916 252.773 125.386 251.735 125.386C250.155 125.385 248.873 126.616 248.873 128.134Z" fill="#F9AFAB"/>
<path d="M201.377 120.502C202.758 122.058 205.245 122.332 206.965 120.989C206.81 119.611 205.595 118.539 204.12 118.539C202.823 118.539 201.728 119.367 201.377 120.502Z" fill="#F9AFAB"/>
<path d="M233.448 136.304C233.448 136.304 215.831 139.795 215.834 139.778C215.838 139.761 216.38 136.769 216.38 136.769L224.124 135.966L233.448 136.304Z" fill="#4A5EA3"/>
<path d="M233.834 108.061L233.776 122.398L232.156 108L233.834 108.061Z" fill="#2F3D6C"/>
<path d="M18.9 202.508C25.0798 191.642 5.57144 186.533 0.868918 190.843C-3.83464 195.153 11.757 215.068 18.9 202.508Z" fill="#FE9ECC"/>
<path d="M27.1014 199.192C39.2284 199.192 33.7401 178.361 28.5552 178.361C22.0543 178.361 13.0901 199.192 27.1014 199.192Z" fill="#FE9ECC"/>
<path d="M36.4481 206.748C46.4459 214.565 55.2338 197.075 51.6786 191.849C48.1235 186.621 24.8919 197.713 36.4481 206.748Z" fill="#FE9ECC"/>
<path d="M23.6987 211.92C22.0112 208.17 19.5411 204.676 16.3575 201.535C10.941 196.193 5.24409 193.687 5.18685 193.663C5.01721 193.589 4.81736 193.662 4.74087 193.824C4.66437 193.987 4.73988 194.179 4.90951 194.253C4.96519 194.277 10.5638 196.742 15.8913 202.004C19.0134 205.086 21.4341 208.514 23.0858 212.19C23.2731 212.607 23.4474 213.028 23.6149 213.452H24.3357C24.1364 212.937 23.9261 212.426 23.6987 211.92Z" fill="#FF78BA"/>
<path d="M28.254 182.633C28.2759 182.455 28.1437 182.294 27.959 182.273C27.7737 182.251 27.6067 182.378 27.5843 182.556C27.5625 182.732 25.8619 196.692 25.9488 213.452H26.6227C26.5363 196.736 28.2322 182.808 28.254 182.633Z" fill="#FF78BA"/>
<path d="M48.3109 194.189C48.2074 194.04 47.9981 194 47.8436 194.1C47.7952 194.131 42.9309 197.273 37.9265 202.441C35.2009 205.256 32.1026 209.03 29.8328 213.453H30.5863C32.8051 209.225 35.7826 205.608 38.4094 202.893C43.3612 197.777 48.1698 194.669 48.2182 194.638C48.3728 194.538 48.4145 194.337 48.3109 194.189Z" fill="#FF78BA"/>
<path d="M26.6232 213.452H25.9494H24.3357H23.615H14.2084C13.8468 213.452 13.5902 213.791 13.7021 214.122L14.2958 215.871L14.5961 216.757L18.8948 229.423C19.0113 229.767 19.3454 230 19.7216 230H35.2165C35.5932 230 35.9268 229.767 36.0433 229.423L40.3425 216.757L40.6428 215.871L41.2365 214.122C41.3489 213.791 41.0924 213.452 40.7308 213.452H30.5847H29.8312H26.6232Z" fill="#D2DCFF"/>
<path d="M40.6439 215.871L40.3436 216.756H14.5966L14.2963 215.871H40.6439Z" fill="#AEC3FF"/>
<path d="M73.8774 66.0831V86.6739C73.8774 87.4005 73.2638 87.9897 72.5072 87.9897H46.7326C45.976 87.9897 45.3625 87.4005 45.3625 86.6739V66.0831C45.3625 65.3559 45.976 64.7672 46.7326 64.7672H72.5072C73.2638 64.7672 73.8774 65.3559 73.8774 66.0831Z" fill="#D2DCFF"/>
<path d="M73.8774 66.0831V69.9646H45.3625V66.0831C45.3625 65.3559 45.9755 64.7672 46.7326 64.7672H72.5072C73.2638 64.7672 73.8774 65.3559 73.8774 66.0831Z" fill="#6277D7"/>
<path d="M53.0904 66.4154C52.6996 66.4154 52.3832 66.111 52.3832 65.7362V63.7987C52.3832 63.4234 52.7001 63.1196 53.0904 63.1196C53.4812 63.1196 53.7976 63.4239 53.7976 63.7987V65.7362C53.7976 66.111 53.4807 66.4154 53.0904 66.4154Z" fill="#6277D7"/>
<path d="M66.1494 66.4154C65.7586 66.4154 65.4423 66.111 65.4423 65.7362V63.7987C65.4423 63.4234 65.7592 63.1196 66.1494 63.1196C66.5402 63.1196 66.8566 63.4239 66.8566 63.7987V65.7362C66.8566 66.111 66.5402 66.4154 66.1494 66.4154Z" fill="#6277D7"/>
<path d="M53.5052 79.5545L56.5488 76.9294C56.7038 76.795 56.8584 76.6426 57.0135 76.4721C57.1686 76.3017 57.246 76.1038 57.246 75.8769C57.246 75.622 57.1503 75.4217 56.9583 75.2762C56.7663 75.1308 56.5415 75.0583 56.2834 75.0583C55.9732 75.0583 55.7318 75.1508 55.5585 75.3347C55.3853 75.5191 55.2874 75.746 55.265 76.0149L53.6051 75.8979C53.6275 75.5081 53.7118 75.1697 53.8595 74.8829C54.0068 74.596 54.2024 74.3568 54.446 74.1654C54.6895 73.974 54.9752 73.8305 55.3036 73.735C55.6319 73.6396 55.9878 73.5916 56.3714 73.5916C56.7257 73.5916 57.0577 73.6396 57.3673 73.735C57.6769 73.8305 57.9465 73.9724 58.1754 74.1604C58.4039 74.3483 58.5828 74.5835 58.7124 74.8669C58.8415 75.1503 58.906 75.4801 58.906 75.8554C58.906 76.0963 58.88 76.3142 58.8285 76.5091C58.777 76.704 58.7047 76.8809 58.6126 77.0403C58.5205 77.1998 58.4112 77.3467 58.2857 77.4816C58.1603 77.6166 58.024 77.7474 57.8762 77.8749L55.4966 79.8414H58.9716V81.2446H53.5042V79.5545H53.5052Z" fill="#6277D7"/>
<path d="M62.8904 78.5555C62.802 78.5765 62.7135 78.5945 62.625 78.6085C62.5366 78.623 62.444 78.6295 62.3482 78.6295C61.9793 78.6295 61.6436 78.5655 61.3413 78.4381C61.0384 78.3106 60.7803 78.1367 60.5664 77.9173C60.3526 77.6979 60.1866 77.4376 60.0685 77.1362C59.9504 76.8349 59.8915 76.5145 59.8915 76.1742C59.8915 75.7844 59.967 75.4321 60.1184 75.1168C60.2699 74.8014 60.4765 74.5306 60.7382 74.3037C61 74.0768 61.308 73.9014 61.6624 73.7775C62.0167 73.6536 62.4003 73.5916 62.8134 73.5916C63.2193 73.5916 63.6007 73.6536 63.9587 73.7775C64.3167 73.9014 64.6263 74.0768 64.8886 74.3037C65.1503 74.5306 65.3569 74.8014 65.5084 75.1168C65.6598 75.4321 65.7353 75.7849 65.7353 76.1742C65.7353 76.4436 65.7092 76.6895 65.6577 76.9128C65.6062 77.1362 65.5375 77.3472 65.4532 77.5456C65.3684 77.744 65.2685 77.9333 65.1545 78.1142C65.04 78.2952 64.9204 78.481 64.795 78.6719L63.0793 81.2441H61.054L62.8904 78.5555ZM61.5515 76.2383C61.5515 76.5786 61.6676 76.8599 61.9002 77.0833C62.1328 77.3067 62.4367 77.4181 62.8134 77.4181C63.1902 77.4181 63.4941 77.3067 63.7267 77.0833C63.9593 76.8599 64.0753 76.5786 64.0753 76.2383C64.0753 75.8984 63.9593 75.6165 63.7267 75.3931C63.4941 75.1697 63.1902 75.0583 62.8134 75.0583C62.4367 75.0583 62.1328 75.1697 61.9002 75.3931C61.6676 75.6165 61.5515 75.8979 61.5515 76.2383Z" fill="#6277D7"/>
<path d="M62.8956 85.1992H56.3443C56.1851 85.1992 56.056 85.0753 56.056 84.9223C56.056 84.7694 56.1851 84.6455 56.3443 84.6455H62.8956C63.0549 84.6455 63.1839 84.7694 63.1839 84.9223C63.1839 85.0753 63.0549 85.1992 62.8956 85.1992Z" fill="#AEC3FF"/>
<path d="M288.16 186.515L286.99 195.836L285.585 207.027L284.701 214.063L284.4 216.449L283.516 223.487L282.771 229.42H281.004L282.634 216.451L283.516 209.413L283.817 207.027L284.701 199.99V199.989L285.287 195.32L286.393 186.515H288.16Z" fill="#D2DCFF"/>
<path d="M300 229.42H298.232L294.294 198.055L292.844 186.515H294.611L296.131 198.612L300 229.42Z" fill="#D2DCFF"/>
<path d="M276.557 186.515L275.812 192.442L272.796 216.449L271.913 223.487L271.168 229.42H269.4L271.029 216.451L271.913 209.413L274.11 191.925L274.789 186.515H276.557Z" fill="#D2DCFF"/>
<path d="M288.396 229.42H286.629L284.701 214.063L283.817 207.027L282.23 194.39L281.24 186.515H283.008L284.068 194.949L284.701 199.989V199.99L285.585 207.027L288.396 229.42Z" fill="#D2DCFF"/>
<path d="M295.804 186.514H272.869C272.106 186.514 271.489 185.92 271.489 185.189V185.112C271.489 184.379 272.106 183.786 272.869 183.786H295.804C296.567 183.786 297.184 184.38 297.184 185.112V185.189C297.185 185.921 296.567 186.514 295.804 186.514Z" fill="#D2DCFF"/>
<path d="M284.745 186.514H272.869C272.107 186.514 271.489 185.92 271.489 185.189V185.112C271.489 184.379 272.107 183.786 272.869 183.786H284.745C285.507 183.786 286.125 184.38 286.125 185.112V185.189C286.125 185.921 285.507 186.514 284.745 186.514Z" fill="#86A2E2"/>
<path d="M280.372 177.153H288.301C288.692 177.153 288.995 177.481 288.949 177.854L288.278 183.235C288.239 183.549 287.96 183.786 287.63 183.786H281.043C280.713 183.786 280.435 183.549 280.395 183.235L279.725 177.854C279.678 177.481 279.982 177.153 280.372 177.153Z" fill="#D2DCFF"/>
<path d="M287.059 174.957V172.511L285.534 175.292V170.775L284.337 173.619L283.139 170.775V175.292L281.615 172.511V174.957L279.394 171.528L280.372 177.153H284.337H288.301L289.279 171.528L287.059 174.957Z" fill="#FE9ECC"/>
<path d="M276.557 186.515L275.812 192.442L274.11 191.925L274.789 186.515H276.557Z" fill="#AEC3FF"/>
<path d="M284.068 194.949L282.23 194.39L281.24 186.515H283.008L284.068 194.949Z" fill="#AEC3FF"/>
<path d="M288.16 186.515L286.99 195.836L285.287 195.32L286.393 186.515H288.16Z" fill="#AEC3FF"/>
<path d="M296.131 198.612L294.294 198.055L292.844 186.515H294.611L296.131 198.612Z" fill="#AEC3FF"/>
</svg>
