<svg width="300" height="230" viewBox="0 0 300 230" fill="none" xmlns="http://www.w3.org/2000/svg">
<path d="M96.1908 183.135L89.7523 230H87.6409L94.0794 183.135H96.1908Z" fill="#D2DCFF"/>
<path d="M67.7369 183.135L67.0128 188.406L61.2984 229.999H59.1863L64.9297 188.2L65.6249 183.135H67.7369Z" fill="#D2DCFF"/>
<path d="M96.1908 229.999H94.0794L93.1887 223.518L92.1333 215.834L88.6598 190.555L87.6409 183.135H89.7529L90.8014 190.767L93.1887 208.147L94.2447 215.832L96.1908 229.999Z" fill="#D2DCFF"/>
<path d="M124.645 229.999H122.533L117.535 193.624L116.094 183.135H118.206L119.675 193.827L124.645 229.999Z" fill="#D2DCFF"/>
<path d="M67.84 151.807H65.728V180.155H67.84V151.807Z" fill="#D2DCFF"/>
<path d="M96.5353 151.807H94.4239V180.155H96.5353V151.807Z" fill="#D2DCFF"/>
<path d="M119.092 180.155H90.0779C91.0151 180.155 91.775 180.822 91.775 181.645C91.775 182.468 91.0151 183.135 90.0779 183.135H119.092C120.03 183.135 120.79 182.468 120.79 181.645C120.79 180.822 120.03 180.155 119.092 180.155Z" fill="#D2DCFF"/>
<path d="M91.775 181.645C91.775 180.822 91.0151 180.155 90.0779 180.155H67.8847H65.0259C64.0887 180.155 63.3287 180.822 63.3287 181.645C63.3287 182.468 64.0887 183.135 65.0259 183.135H67.8847H90.0779C91.0151 183.135 91.775 182.468 91.775 181.645Z" fill="#86A2E2"/>
<path d="M98.2613 130.473H64.0032C62.697 130.473 61.6378 131.403 61.6378 132.549V149.73C61.6378 150.877 62.697 151.807 64.0032 151.807H98.2613C99.5675 151.807 100.627 150.877 100.627 149.73V132.549C100.626 131.402 99.5675 130.473 98.2613 130.473Z" fill="#D2DCFF"/>
<path d="M67.7369 183.135L67.0128 188.406C66.2497 188.33 65.5526 188.261 64.9297 188.2L65.6255 183.135H67.7369Z" fill="#AEC3FF"/>
<path d="M89.7529 183.135L90.8014 190.767C90.0842 190.696 89.3701 190.625 88.6604 190.555L87.6409 183.135H89.7529Z" fill="#AEC3FF"/>
<path d="M119.675 193.827C118.994 193.763 118.279 193.696 117.535 193.624H117.535L116.094 183.135H118.206L119.675 193.827Z" fill="#AEC3FF"/>
<path d="M65.728 151.807H67.84V155.722L65.728 155.517V151.807Z" fill="#AEC3FF"/>
<path d="M96.5353 151.807V158.511L94.4239 158.306V151.807H96.5353Z" fill="#AEC3FF"/>
<path d="M107.997 104.399C99.7687 105.603 89.5165 102.914 88.2311 101.203C85.2522 105.188 83.7386 105.063 83.7386 105.063V108.052L83.0661 107.462C82.8586 107.049 82.5293 106.641 82.0364 106.641C79.3273 106.641 79.1381 113.257 83.6978 113.639C83.7877 113.899 83.8807 114.141 83.9756 114.36V124.949H94.2604V120.784C94.9519 120.951 95.6144 121.046 96.2229 121.046C100.278 121.046 107.188 115.811 107.971 107.461C108.018 105.886 107.997 104.399 107.997 104.399Z" fill="#FCBEB7"/>
<path d="M95.5132 93.0657C88.4203 93.0657 87.0016 96.3868 87.0016 96.3868C83.975 96.3868 79.3411 101.244 82.1314 106.641L82.1459 106.653L83.7393 108.052V105.063C83.7393 105.063 85.2523 105.188 88.2318 101.203C89.5172 102.914 99.77 105.603 107.997 104.399C107.997 104.399 108.019 105.886 107.972 107.461C107.972 107.463 107.972 107.465 107.972 107.466C111.044 99.6614 104.876 93.0657 95.5132 93.0657Z" fill="#311643"/>
<path d="M92.4634 109.741C92.1497 109.741 91.8958 109.518 91.8958 109.243V108.312C91.8958 108.037 92.1497 107.814 92.4634 107.814C92.777 107.814 93.031 108.037 93.031 108.312V109.243C93.0304 109.518 92.7764 109.741 92.4634 109.741Z" fill="#311643"/>
<path d="M102.985 109.741C102.671 109.741 102.417 109.518 102.417 109.243V108.312C102.417 108.037 102.671 107.814 102.985 107.814C103.298 107.814 103.552 108.037 103.552 108.312V109.243C103.551 109.518 103.298 109.741 102.985 109.741Z" fill="#311643"/>
<path d="M96.6353 115.556C95.6226 115.556 94.933 115.221 94.515 114.917C93.9883 114.533 93.7695 114.114 93.7601 114.096C93.701 113.981 93.7595 113.846 93.8902 113.794C94.021 113.742 94.1743 113.794 94.2334 113.908C94.263 113.964 94.9821 115.289 97.0721 115.076C97.2148 115.062 97.3436 115.151 97.36 115.277C97.3763 115.402 97.2745 115.515 97.1318 115.53C96.959 115.548 96.793 115.556 96.6353 115.556Z" fill="#311643"/>
<path d="M88.6956 113.871C90.2453 113.871 91.5016 112.769 91.5016 111.408C91.5016 110.048 90.2453 108.945 88.6956 108.945C87.1459 108.945 85.8896 110.048 85.8896 111.408C85.8896 112.769 87.1459 113.871 88.6956 113.871Z" fill="#F49795"/>
<path d="M107.679 109.363C107.323 111.017 106.727 112.526 105.973 113.868C104.489 113.804 103.309 112.727 103.309 111.408C103.309 110.048 104.565 108.945 106.115 108.945C106.694 108.945 107.232 109.099 107.679 109.363Z" fill="#F49795"/>
<path d="M102.984 103.917C100.936 103.917 99.2444 105.284 99.0313 107.034C97.9175 106.573 96.9344 106.822 96.4158 107.032C96.2021 105.283 94.5112 103.917 92.4633 103.917C90.2708 103.917 88.4875 105.482 88.4875 107.407C88.4875 109.332 90.2715 110.898 92.4633 110.898C94.6061 110.898 96.358 109.401 96.4353 107.536C96.7647 107.372 97.8226 106.948 99.0118 107.539C99.091 109.403 100.842 110.898 102.984 110.898C105.176 110.898 106.96 109.332 106.96 107.407C106.96 105.482 105.176 103.917 102.984 103.917ZM92.4633 110.441C90.5575 110.441 89.0074 109.08 89.0074 107.407C89.0074 105.734 90.5575 104.373 92.4633 104.373C94.3685 104.373 95.9192 105.734 95.9192 107.407C95.9186 109.08 94.3685 110.441 92.4633 110.441ZM102.984 110.441C101.079 110.441 99.5285 109.08 99.5285 107.407C99.5285 105.734 101.079 104.373 102.984 104.373C104.89 104.373 106.44 105.734 106.44 107.407C106.44 109.08 104.89 110.441 102.984 110.441Z" fill="white"/>
<path d="M94.2598 124.949V120.784C91.934 120.223 89.2865 118.848 87.2964 117.537L94.2598 124.949Z" fill="#F9AFAB"/>
<path d="M123.481 196.142L121.334 195.884L119.301 181.083H121.413L123.481 196.142Z" fill="#EBEDF4"/>
<path d="M117.778 139.579L119.643 142.718H109.703L117.778 139.579Z" fill="#FCBEB7"/>
<path d="M98.7384 221.815V228.573C98.7384 229.361 99.4663 230 100.364 230H122.197C122.404 230 122.573 229.852 122.573 229.67V228.424C122.573 227.823 122.174 227.277 121.551 227.027L108.927 221.815H98.7384Z" fill="#2F3D6C"/>
<path d="M98.7384 217.97L98.7434 221.815H108.926L109.631 217.97H98.7384Z" fill="#FCBEB7"/>
<path d="M94.2422 121.021L108.067 126.503C109.967 127.257 111.514 128.563 112.446 130.202L117.778 139.579L109.703 142.718L110.372 163.445H70.1299L71.8868 144.087L64.6091 144.128V133.536C64.6091 130.256 66.8544 127.297 70.3028 126.033L83.975 121.021C83.9756 121.021 89.9484 124.462 94.2422 121.021Z" fill="#89AEFF"/>
<path d="M97.1217 122.118C95.0418 123.594 92.4709 124.396 89.7592 124.396C86.8872 124.396 84.08 123.415 81.9403 121.767L81.5003 121.928C83.7355 123.698 86.7257 124.761 89.7592 124.761C92.64 124.761 95.368 123.887 97.5504 122.282L97.1217 122.118Z" fill="white"/>
<path d="M120.164 221.815V228.573C120.164 229.361 120.892 230 121.79 230H143.623C143.83 230 143.999 229.852 143.999 229.67V228.424C143.999 227.823 143.6 227.277 142.977 227.027L130.353 221.815H120.164Z" fill="#2F3D6C"/>
<path d="M120.164 217.97L120.17 221.815H130.353L131.057 217.97H120.164Z" fill="#FCBEB7"/>
<path d="M91.5544 163.445V163.806C91.5463 172.885 99.9271 180.248 110.268 180.248H118.962L120.165 217.97H131.057L139.089 172.993C139.985 167.977 135.568 163.445 129.785 163.445H91.5544Z" fill="#6277D7"/>
<path d="M139.204 171.733C138.266 172.937 136.688 173.728 134.899 173.728C132.02 173.728 129.686 171.679 129.686 169.151C129.686 166.724 131.839 164.737 134.559 164.584C137.368 166.037 139.219 168.73 139.204 171.733Z" fill="#4A5EA3"/>
<path d="M117.777 171.556L118.962 180.248H111.829L117.777 171.556Z" fill="#4A5EA3"/>
<path d="M70.1287 163.445V163.806C70.1205 172.885 78.5013 180.248 88.8427 180.248H97.536L98.7391 217.97H109.632L117.663 172.993C118.559 167.977 114.142 163.445 108.359 163.445H70.1287Z" fill="#6277D7"/>
<path d="M64.6097 144.128L64.997 155.868C65.1019 159.04 68.0613 161.565 71.6768 161.565H94.9538L96.5164 156.785L75.9845 153.814L75.8393 144.064L64.6097 144.128Z" fill="#FCBEB7"/>
<path d="M71.5122 159.123C71.5122 160.051 71.0369 160.882 70.2883 161.438C67.8821 160.991 65.9486 159.408 65.2628 157.349C65.8895 156.588 66.9091 156.093 68.0606 156.093C69.9677 156.093 71.5122 157.45 71.5122 159.123Z" fill="#F9AFAB"/>
<path d="M75.8393 144.065L78.9916 154.249L75.9845 153.815L75.8393 144.065Z" fill="#4A62D3"/>
<path d="M93.6476 156.37L89.978 161.565H94.9532L96.5164 156.785L93.6476 156.37Z" fill="#F9AFAB"/>
<path d="M133.646 142.718H103.294C102.005 142.718 100.871 143.468 100.515 144.556L94.9531 161.565H82.6455C82.0541 161.565 81.5745 161.986 81.5745 162.505C81.5745 163.024 82.0541 163.445 82.6455 163.445H94.3384H98.0564H130.707L136.426 145.957C136.957 144.334 135.569 142.718 133.646 142.718Z" fill="#4A5EA3"/>
<path d="M117.777 171.556C116.858 172.859 115.215 173.728 113.341 173.728C110.461 173.728 108.128 171.679 108.128 169.151C108.128 166.687 110.344 164.678 113.122 164.577C115.882 166.002 117.72 168.621 117.777 171.556Z" fill="#4A5EA3"/>
<path d="M118.216 153.869C118.296 153.075 117.858 152.392 117.238 152.344C116.618 152.296 116.051 152.901 115.972 153.696C115.892 154.49 116.33 155.172 116.95 155.22C117.569 155.268 118.136 154.663 118.216 153.869Z" fill="#89AEFF"/>
<path d="M70.7152 130.344C70.7152 131.824 69.348 133.024 67.6621 133.024C66.4458 133.024 65.3967 132.4 64.9058 131.497C65.337 130.034 66.2252 128.709 67.4585 127.67C67.5257 127.665 67.5936 127.664 67.6621 127.664C69.348 127.663 70.7152 128.864 70.7152 130.344Z" fill="#4A62D3"/>
<path d="M112.257 129.888C111.771 130.175 111.185 130.343 110.554 130.343C108.869 130.343 107.502 129.143 107.502 127.663C107.502 127.213 107.628 126.789 107.851 126.418L108.067 126.503C109.844 127.208 111.313 128.396 112.257 129.888Z" fill="#4A62D3"/>
<path d="M179.109 67.3844L179.005 83.324L188.259 83.3703L196.772 83.4129L197.36 83.4156L208.888 83.473C208.888 83.473 208.967 71.233 209.013 64.1186C209.063 56.465 202.056 55.0992 202.056 55.0992C202.056 55.0992 199.529 51.4907 192.106 51.4537C183.175 51.409 177.189 56.1825 177.151 62.111C177.134 64.8338 178.383 66.5931 179.109 67.3844ZM179.276 64.74C180.407 64.522 183.598 62.0818 183.615 59.5632C186.077 63.1849 193.639 68.4169 204.955 65.3034V65.3039C204.99 65.2995 205.025 65.2968 205.063 65.2973C207.75 65.3106 207.894 71.8726 203.37 72.2291C203.302 72.4212 203.232 72.6038 203.161 72.7749L203.092 83.4443L192.892 83.393L192.919 79.2459C192.207 79.4181 191.525 79.5162 190.901 79.5129C186.682 79.4925 179.385 73.7417 179.276 64.74Z" fill="#311643"/>
<path d="M192.915 79.8175L192.919 79.2464C192.207 79.4186 191.525 79.5167 190.901 79.5134C186.682 79.4924 179.385 73.7416 179.276 64.7399C180.407 64.5219 183.598 62.0817 183.615 59.5631C186.077 63.1849 193.639 68.4169 204.955 65.3033V65.3039C204.99 65.2995 205.025 65.2967 205.063 65.2973C207.75 65.3105 207.894 71.8726 203.37 72.2291C203.302 72.4211 203.232 72.6038 203.161 72.7748L203.115 79.9522L211.082 83.2981L211.026 91.9544L184.48 91.8212L184.536 83.0833L192.915 79.8175Z" fill="#FCBEB7"/>
<path d="M184.479 91.8212L184.536 83.0833L192.915 79.8175L192.919 79.2463C195.286 78.6724 197.982 77.2679 199.964 75.9545L184.479 91.8212Z" fill="#F9AFAB"/>
<path d="M198.427 72.4354C199.964 72.4354 201.209 71.3417 201.209 69.9924C201.209 68.6432 199.964 67.5494 198.427 67.5494C196.89 67.5494 195.644 68.6432 195.644 69.9924C195.644 71.3417 196.89 72.4354 198.427 72.4354Z" fill="#F49795"/>
<path d="M179.614 67.8701C179.956 69.5124 180.537 71.0113 181.276 72.3467C182.748 72.2904 183.925 71.228 183.934 69.9201C183.942 68.5709 182.704 67.4711 181.167 67.4634C180.594 67.4601 180.059 67.6102 179.614 67.8701Z" fill="#F49795"/>
<path d="M180.39 65.9342C180.378 67.8431 182.136 69.4048 184.311 69.4159C186.435 69.4263 188.181 67.9524 188.272 66.1048C189.463 65.5198 190.501 65.9463 190.827 66.1135C190.892 67.9639 192.619 69.4572 194.745 69.4677C196.919 69.4788 198.698 67.9347 198.711 66.0258C198.723 64.117 196.965 62.5552 194.79 62.5442C192.759 62.5342 191.074 63.8807 190.85 65.6141C190.337 65.4038 189.364 65.1522 188.256 65.603C188.056 63.8669 186.388 62.5022 184.356 62.4923C182.182 62.4813 180.403 64.0254 180.39 65.9342ZM191.34 65.9889C191.351 64.3301 192.897 62.9879 194.787 62.9973C196.677 63.0067 198.205 64.3641 198.195 66.023C198.184 67.6818 196.638 69.024 194.748 69.0146C192.857 69.0053 191.329 67.6478 191.34 65.9889ZM180.906 65.9364C180.917 64.277 182.463 62.9355 184.353 62.9449C186.244 62.9542 187.772 64.3117 187.761 65.9706C187.75 67.63 186.204 68.9716 184.314 68.9622C182.424 68.9534 180.895 67.5958 180.906 65.9364Z" fill="white"/>
<path d="M184.314 68.434C184.625 68.4357 184.879 68.2154 184.88 67.9428L184.886 67.0202C184.888 66.7476 184.638 66.5252 184.327 66.5236C184.017 66.5219 183.763 66.742 183.761 67.0147L183.755 67.9379C183.753 68.2106 184.004 68.4329 184.314 68.434Z" fill="#311643"/>
<path d="M194.58 68.4859C194.891 68.4876 195.144 68.2674 195.146 67.9948L195.152 67.0715C195.154 66.7989 194.904 66.5764 194.593 66.5748C194.283 66.5731 194.029 66.7934 194.027 67.066L194.021 67.9886C194.019 68.2618 194.269 68.4842 194.58 68.4859Z" fill="#311643"/>
<path d="M190.527 74.0662C191.531 74.0711 192.217 73.7427 192.634 73.4431C193.159 73.065 193.379 72.6506 193.387 72.6329C193.446 72.5193 193.39 72.3846 193.26 72.3328C193.13 72.2809 192.978 72.3305 192.918 72.4436C192.889 72.4994 192.167 73.809 190.096 73.5883C189.955 73.5734 189.826 73.6616 189.809 73.7858C189.792 73.91 189.892 74.0226 190.034 74.038C190.206 74.0568 190.37 74.0656 190.527 74.0662Z" fill="#311643"/>
<path d="M172.724 217.689L171.644 221.535L160.114 224.651L161.814 217.635L172.724 217.689Z" fill="#FCBEB7"/>
<path d="M211.504 217.884L211.159 222.639L211.874 222.875L212.334 224.914L200.855 221.681L200.593 217.829L211.504 217.884Z" fill="#FCBEB7"/>
<path d="M151.227 226.102L160.606 222.618L160.114 224.651L171.644 221.535L171.625 224.431C171.619 225.449 171.006 226.369 170.049 226.883L169.044 229.362C168.957 229.576 168.725 229.719 168.466 229.717C168.129 229.716 167.858 229.475 167.86 229.179L167.871 227.563L159.99 229.675L152.033 229.636C150.875 229.63 149.942 228.802 149.949 227.786C149.953 227.05 150.455 226.389 151.227 226.102Z" fill="#2F3D6C"/>
<path d="M200.827 224.549L200.855 221.653L212.333 224.914L211.874 222.875L221.196 226.477C221.962 226.774 222.454 227.442 222.447 228.177C222.436 229.193 221.49 230.009 220.333 230L212.375 229.94L204.255 227.651L204.239 229.343C204.235 229.639 203.96 229.876 203.624 229.874C203.365 229.872 203.135 229.726 203.052 229.51L201.996 226.785C201.263 226.241 200.818 225.429 200.827 224.549Z" fill="#2F3D6C"/>
<path d="M210.392 121.016L214.535 136.821C215.731 141.385 216.183 146.074 215.879 150.75L211.504 217.884L200.593 217.829L196.388 148.114L172.724 217.689L161.814 217.635L181.652 120.873L210.392 121.016Z" fill="#6277D7"/>
<path d="M196.173 87.6107C194.235 87.6008 192.696 85.9556 191.662 84.2913L202.71 84.3465C201.015 85.9921 198.696 87.6228 196.173 87.6107Z" fill="white"/>
<path d="M177.124 88.8358C178.51 86.4369 180.799 84.5324 183.601 83.4458L190.173 80.8969C190.172 81.1673 190.697 82.7373 191.663 84.2913C192.697 85.9556 194.235 87.6008 196.173 87.6107C198.696 87.6234 201.015 85.9927 202.71 84.3465C204.43 82.6761 205.51 80.9907 205.51 80.9907L213.096 84.123C216.201 85.4049 218.477 87.8529 219.287 90.7804L223.63 106.498C224.339 109.061 223.486 111.763 221.377 113.641C217.883 112.545 211.325 110.267 211.325 110.267L210.392 121.017L181.652 120.873L174.693 93.0425L177.124 88.8358Z" fill="#FE9ECC"/>
<path d="M195.873 89.9687C197.471 89.9764 199.1 89.5582 200.714 88.7243C201.996 88.0627 203.271 87.1388 204.506 85.9788C206.601 84.0099 207.882 81.9962 207.895 81.9758L207.469 81.7997C207.456 81.8196 206.213 83.7714 204.155 85.704C202.952 86.8336 201.713 87.7309 200.471 88.3716C198.932 89.1657 197.386 89.5643 195.875 89.5571C194.45 89.5499 193.168 89.126 192.067 88.2966C191.175 87.6255 190.396 86.6886 189.75 85.5115C188.641 83.489 188.346 81.6269 188.343 81.6065L187.9 81.7782C187.914 81.8642 188.185 83.6009 189.323 85.6814C189.997 86.912 190.816 87.896 191.757 88.6056C192.947 89.5024 194.331 89.961 195.873 89.9687Z" fill="white"/>
<path d="M178.229 174.446C181.113 174.446 183.451 172.393 183.451 169.861C183.451 167.329 181.113 165.277 178.229 165.277C175.344 165.277 173.006 167.329 173.006 169.861C173.006 172.393 175.344 174.446 178.229 174.446Z" fill="#4A5EA3"/>
<path d="M205.589 174.583C208.473 174.583 210.811 172.53 210.811 169.998C210.811 167.466 208.473 165.413 205.589 165.413C202.705 165.413 200.366 167.466 200.366 169.998C200.366 172.53 202.705 174.583 205.589 174.583Z" fill="#4A5EA3"/>
<path d="M213.037 86.1605C213.027 87.7774 214.511 89.0963 216.354 89.1056C217.094 89.1095 217.778 88.9015 218.334 88.5461C217.305 86.805 215.705 85.3564 213.72 84.4017C213.295 84.8901 213.042 85.4994 213.037 86.1605Z" fill="#FF78BA"/>
<path d="M193.271 124.563L171.16 123.72C169.999 123.675 168.997 122.987 168.67 122.008L159.184 93.6617C158.983 93.0596 159.516 92.462 160.23 92.4896L182.59 93.3432C183.602 93.3818 184.475 93.9812 184.76 94.8349L194.316 123.392C194.518 123.993 193.985 124.591 193.271 124.563Z" fill="#4A5EA3"/>
<path d="M169.534 109.581L165.643 112.961L164.995 111.026L169.534 109.581Z" fill="#2F3D6C"/>
<path d="M164.196 104.293L169.769 104.644C170.18 104.67 170.497 104.973 170.49 105.335L171.044 105.369C171.404 105.39 171.695 105.635 171.736 105.95L171.801 106.459H171.804C172.216 106.466 172.544 106.765 172.537 107.127C172.532 107.392 172.344 107.629 172.062 107.726L170.811 108.155C170.81 108.714 170.438 109.22 169.859 109.452L165.969 111.007C165.404 111.233 164.777 111.314 164.162 111.241C162.779 111.076 161.664 110.164 161.38 108.965L161.146 107.972C160.893 106.903 161.277 105.795 162.165 105.031C162.708 104.563 163.436 104.299 164.196 104.293Z" fill="#FCBEB7"/>
<path d="M192.031 85.5524L188.173 93.6982C187.956 94.1579 187.639 94.5735 187.25 94.9101L186.569 95.4988C186.411 95.6357 186.192 95.5557 186.191 95.3609L186.187 94.5221C186.184 94.0425 186.297 93.5526 186.514 93.0929L190.373 84.9471C190.608 84.4515 191.169 84.1849 191.627 84.3521C192.085 84.5193 192.266 85.0568 192.031 85.5524Z" fill="#6277D7"/>
<path d="M186.997 90.3914L189.102 87.8761C189.374 87.5516 189.791 87.3463 190.248 87.3121L193.753 87.0511C194.23 87.0158 194.704 87.1527 195.063 87.4302L196.879 88.8318C197.141 89.0344 197.364 89.2733 197.537 89.5387L199.755 92.6694L220.885 107.833C222.97 109.329 223.137 112.074 221.247 113.757C219.367 115.431 216.258 115.333 214.518 113.546L196.711 95.2538L192.954 93.1997L190.17 93.2698C189.524 93.2863 188.956 92.894 188.823 92.3383L188.671 92.1783C188.409 91.903 188.305 91.5376 188.388 91.1861L188.552 90.4973L187.649 91.0028C187.517 91.0768 187.353 91.09 187.208 91.0392C186.914 90.9355 186.809 90.616 186.997 90.3914Z" fill="#FCBEB7"/>
<path d="M211.325 110.266L203.523 102.251L211.003 113.983L211.325 110.266Z" fill="#FF78BA"/>
<path d="M193.271 124.563L180.266 127.638L180.992 124.095L193.271 124.563Z" fill="#2F3D6C"/>
<path d="M178.295 87.1731C178.704 87.3254 179.154 87.4103 179.627 87.4125C181.542 87.4219 183.104 86.0667 183.115 84.3846C183.117 84.1435 183.086 83.9084 183.028 83.6832C181.153 84.506 179.533 85.7041 178.295 87.1731Z" fill="#FF78BA"/>
<path d="M217.89 114.337C219.672 114.337 221.116 113.069 221.116 111.505C221.116 109.94 219.672 108.672 217.89 108.672C216.108 108.672 214.664 109.94 214.664 111.505C214.664 113.069 216.108 114.337 217.89 114.337Z" fill="#F9AFAB"/>
<path d="M257.863 123.052H254.432V226.987H257.863V123.052Z" fill="#D2DCFF"/>
<path d="M281.223 230H231.071C230.15 230 229.404 229.344 229.404 228.536V228.451C229.404 227.643 230.15 226.988 231.071 226.988H281.223C282.144 226.988 282.89 227.644 282.89 228.451V228.536C282.89 229.344 282.143 230 281.223 230Z" fill="#D2DCFF"/>
<path d="M288.419 123.052H223.875L235.043 91.8599H277.251L288.419 123.052Z" fill="#D2DCFF"/>
<path d="M257.863 123.052V141.085C256.703 141.431 255.554 141.774 254.432 142.109V123.051H257.863V123.052Z" fill="#AEC3FF"/>
<path d="M227.832 112.002L284.472 112.026L285.291 114.317H227.003L227.832 112.002Z" fill="#AEC3FF"/>
<path d="M296.14 221.168V219.154C296.14 218.531 295.565 218.026 294.855 218.026H241.62C238.934 218.026 236.757 219.938 236.757 222.296V225.73C236.757 228.088 238.934 230 241.62 230H294.855C295.565 230 296.14 229.495 296.14 228.873V226.858C296.14 226.235 295.565 225.731 294.855 225.731H243.576C242.496 225.731 241.62 224.962 241.62 224.014C241.62 223.065 242.496 222.296 243.576 222.296H294.855C295.565 222.296 296.14 221.791 296.14 221.168Z" fill="#86A2E2"/>
<path d="M295.623 185.247V183.233C295.623 182.61 295.048 182.105 294.338 182.105H241.103C238.417 182.105 236.24 184.017 236.24 186.375V189.809C236.24 192.167 238.417 194.079 241.103 194.079H294.338C295.048 194.079 295.623 193.574 295.623 192.951V190.937C295.623 190.314 295.048 189.81 294.338 189.81H243.06C241.979 189.81 241.103 189.041 241.103 188.092C241.103 187.144 241.979 186.375 243.06 186.375H294.338C295.048 186.375 295.623 185.87 295.623 185.247Z" fill="#D2DCFF"/>
<path d="M292.336 209.195V207.18C292.336 206.558 291.761 206.053 291.052 206.053H245.424C242.738 206.053 240.56 207.965 240.56 210.323V213.757C240.56 216.115 242.738 218.026 245.424 218.026H291.052C291.761 218.026 292.336 217.522 292.336 216.899V214.884C292.336 214.261 291.761 213.757 291.052 213.757H247.38C246.299 213.757 245.424 212.988 245.424 212.04C245.424 211.091 246.299 210.322 247.38 210.322H291.052C291.761 210.322 292.336 209.817 292.336 209.195Z" fill="#AEC3FF"/>
<path d="M300 173.599V171.585C300 170.962 299.425 170.457 298.716 170.457H253.088C250.402 170.457 248.225 172.369 248.225 174.727V178.161C248.225 180.519 250.402 182.431 253.088 182.431H298.716C299.425 182.431 300 181.926 300 181.303V179.289C300 178.666 299.425 178.161 298.716 178.161H255.044C253.963 178.161 253.088 177.392 253.088 176.444C253.088 175.495 253.963 174.726 255.044 174.726H298.716C299.425 174.727 300 174.222 300 173.599Z" fill="#AEC3FF"/>
<path d="M290.645 210.322V213.756H247.38C246.299 213.756 245.424 212.988 245.424 212.039C245.424 211.09 246.299 210.322 247.38 210.322H290.645V210.322Z" fill="#EFF1FA"/>
<path d="M286.824 222.296V225.73H243.559C242.478 225.73 241.603 224.962 241.603 224.013C241.603 223.064 242.478 222.296 243.559 222.296H286.824V222.296Z" fill="#EFF1FA"/>
<path d="M286.307 186.375V189.809H243.042C241.961 189.809 241.086 189.04 241.086 188.092C241.086 187.143 241.961 186.374 243.042 186.374H286.307V186.375Z" fill="#EFF1FA"/>
<path d="M298.309 174.727V178.161H255.043C253.963 178.161 253.087 177.392 253.087 176.444C253.087 175.495 253.963 174.726 255.043 174.726H298.309V174.727Z" fill="#EFF1FA"/>
<path d="M300 197.221V195.207C300 194.583 299.425 194.079 298.716 194.079H253.088C250.402 194.079 248.225 195.991 248.225 198.349V201.783C248.225 204.141 250.402 206.053 253.088 206.053H298.716C299.425 206.053 300 205.548 300 204.925V202.911C300 202.288 299.425 201.784 298.716 201.784H255.044C253.963 201.784 253.088 201.015 253.088 200.066C253.088 199.118 253.963 198.349 255.044 198.349H298.716C299.425 198.349 300 197.844 300 197.221Z" fill="#86A2E2"/>
<path d="M298.309 198.349V201.783H255.043C253.963 201.783 253.087 201.014 253.087 200.066C253.087 199.117 253.963 198.348 255.043 198.348H298.309V198.349Z" fill="#EFF1FA"/>
<path d="M275.667 164.462H283.505C283.892 164.462 284.192 164.758 284.146 165.096L283.483 169.958C283.444 170.243 283.169 170.457 282.842 170.457H276.33C276.004 170.457 275.729 170.243 275.69 169.958L275.027 165.096C274.981 164.759 275.281 164.462 275.667 164.462Z" fill="#D2DCFF"/>
<path d="M282.277 162.478V160.267L280.77 162.78V158.698L279.586 161.269L278.402 158.698V162.78L276.895 160.267V162.478L274.7 159.378L275.667 164.462H279.586H283.505L284.473 159.378L282.277 162.478Z" fill="#FE9ECC"/>
<path d="M156.426 57.0903V79.8279C156.426 80.6303 155.685 81.281 154.771 81.281H123.636C122.722 81.281 121.981 80.6303 121.981 79.8279V57.0903C121.981 56.2873 122.722 55.6372 123.636 55.6372H154.771C155.685 55.6372 156.426 56.2879 156.426 57.0903Z" fill="#FFD9E8"/>
<path d="M156.426 57.0903V61.3764H121.981V57.0903C121.981 56.2873 122.722 55.6372 123.636 55.6372H154.771C155.685 55.6372 156.426 56.2879 156.426 57.0903Z" fill="#FE9ECC"/>
<path d="M131.316 57.4572C130.844 57.4572 130.462 57.1217 130.462 56.7073V54.5678C130.462 54.1533 130.844 53.8177 131.316 53.8177C131.788 53.8177 132.17 54.1533 132.17 54.5678V56.7073C132.17 57.1217 131.788 57.4572 131.316 57.4572Z" fill="#FE9ECC"/>
<path d="M147.091 57.4572C146.619 57.4572 146.237 57.1217 146.237 56.7073V54.5678C146.237 54.1533 146.62 53.8177 147.091 53.8177C147.563 53.8177 147.945 54.1533 147.945 54.5678V56.7073C147.945 57.1217 147.563 57.4572 147.091 57.4572Z" fill="#FE9ECC"/>
<path d="M131.817 71.9663L135.494 69.067C135.681 68.9185 135.869 68.7502 136.055 68.562C136.243 68.3744 136.336 68.1553 136.336 67.9048C136.336 67.6234 136.22 67.402 135.989 67.2414C135.757 67.0808 135.485 67.0009 135.173 67.0009C134.799 67.0009 134.507 67.1024 134.298 67.3061C134.088 67.5097 133.97 67.7602 133.943 68.0571L131.938 67.928C131.965 67.4975 132.067 67.1239 132.245 66.8072C132.424 66.4904 132.66 66.2261 132.954 66.0147C133.248 65.8034 133.593 65.6449 133.99 65.539C134.386 65.4336 134.816 65.3807 135.28 65.3807C135.708 65.3807 136.109 65.4336 136.483 65.539C136.857 65.6449 137.182 65.8012 137.459 66.0086C137.735 66.2161 137.951 66.4761 138.108 66.7895C138.263 67.1024 138.341 67.4667 138.341 67.8811C138.341 68.1471 138.31 68.3876 138.248 68.6028C138.186 68.8181 138.098 69.0134 137.987 69.1894C137.876 69.3655 137.744 69.5283 137.593 69.6768C137.441 69.8252 137.276 69.9698 137.098 70.1111L134.224 72.2825H138.421V73.8316H131.817V71.9663H131.817Z" fill="#FE9ECC"/>
<path d="M143.154 70.8635C143.048 70.8872 142.941 70.9065 142.834 70.9219C142.727 70.9379 142.615 70.9451 142.5 70.9451C142.054 70.9451 141.648 70.875 141.283 70.7337C140.917 70.593 140.606 70.4009 140.347 70.1587C140.089 69.9164 139.888 69.6289 139.746 69.2962C139.603 68.9634 139.532 68.6096 139.532 68.2338C139.532 67.8034 139.623 67.4144 139.806 67.0661C139.988 66.7179 140.239 66.4188 140.555 66.1683C140.871 65.9178 141.243 65.7246 141.671 65.5872C142.099 65.4504 142.562 65.3819 143.061 65.3819C143.552 65.3819 144.013 65.4504 144.445 65.5872C144.877 65.7241 145.251 65.9178 145.568 66.1683C145.884 66.4188 146.134 66.7179 146.317 67.0661C146.499 67.4144 146.591 67.8039 146.591 68.2338C146.591 68.5313 146.559 68.8028 146.497 69.0495C146.435 69.2961 146.352 69.529 146.25 69.7475C146.148 69.9666 146.027 70.1758 145.889 70.3756C145.751 70.5754 145.607 70.7806 145.455 70.992L143.383 73.8323H140.936L143.154 70.8635ZM141.537 68.3044C141.537 68.6802 141.677 68.991 141.958 69.2377C142.239 69.4844 142.606 69.6074 143.061 69.6074C143.515 69.6074 143.883 69.4844 144.164 69.2377C144.445 68.991 144.585 68.6802 144.585 68.3044C144.585 67.9286 144.445 67.618 144.164 67.3713C143.883 67.1246 143.515 67.0016 143.061 67.0016C142.606 67.0016 142.239 67.1246 141.958 67.3713C141.677 67.618 141.537 67.9292 141.537 68.3044Z" fill="#FE9ECC"/>
<path d="M143.161 78.2001H135.247C135.055 78.2001 134.899 78.0633 134.899 77.8944C134.899 77.7255 135.055 77.5886 135.247 77.5886H143.161C143.353 77.5886 143.509 77.7255 143.509 77.8944C143.509 78.0633 143.353 78.2001 143.161 78.2001Z" fill="#FE9ECC"/>
<path d="M46.0698 203.92H16.3638V229.999H46.0698V203.92Z" fill="#D2DCFF"/>
<path d="M16.3638 203.92H0V229.999H16.3638V203.92Z" fill="#AEC3FF"/>
<path d="M16.3638 208.379H0V209.143H16.3638V208.379Z" fill="#86A2E2"/>
<path d="M46.0698 208.379H16.3638V209.143H46.0698V208.379Z" fill="#AEC3FF"/>
<path d="M36.6826 212.877H25.7516C25.5442 212.877 25.3757 212.729 25.3757 212.547V212.527C25.3757 212.345 25.5442 212.197 25.7516 212.197H36.6826C36.89 212.197 37.0585 212.345 37.0585 212.527V212.547C37.0585 212.729 36.89 212.877 36.6826 212.877Z" fill="#86A2E2"/>
<path d="M67.7759 203.11L52.5975 196.645L46.2161 208.192L61.3944 214.657L67.7759 203.11Z" fill="#4A5EA3"/>
<path d="M51.8639 198.266L35.1268 200.119L36.9557 212.852L53.6928 211L51.8639 198.266Z" fill="#4A5EA3"/>
<path d="M73.1905 203.92H43.4845V229.999H73.1905V203.92Z" fill="#D2DCFF"/>
<path d="M43.4845 203.92H27.1207V229.999H43.4845V203.92Z" fill="#AEC3FF"/>
<path d="M27.1206 203.92L18.6204 211.914H37.083L43.4845 203.92H27.1206Z" fill="#86A2E2"/>
<path d="M73.1905 203.92L79.2575 212.017H49.5949L43.4845 203.882L73.1905 203.92Z" fill="#AEC3FF"/>
<path d="M49.7866 198.608L48.5917 203.89L51.82 198.383L49.7866 198.608Z" fill="#2F3D6C"/>
<path d="M199.46 32.9452H69.5548C67.7929 32.9452 66.3647 31.6915 66.3647 30.1446V2.8006C66.3647 1.25377 67.7929 0 69.5548 0H199.461C201.223 0 202.651 1.25377 202.651 2.8006V30.1446C202.65 31.6915 201.222 32.9452 199.46 32.9452Z" fill="#6277D7"/>
<path d="M157.65 18.488H81.3054C80.4003 18.488 79.6661 17.844 79.6661 17.0488V15.8971C79.6661 15.1025 80.4003 14.4578 81.3054 14.4578H157.65C158.555 14.4578 159.289 15.1019 159.289 15.8971V17.0488C159.289 17.8434 158.556 18.488 157.65 18.488Z" fill="#D2DCFF"/>
<path d="M248.729 32.9452H217.583C215.821 32.9452 214.393 31.6915 214.393 30.1446V2.8006C214.393 1.25377 215.821 0 217.583 0H248.729C250.491 0 251.919 1.25377 251.919 2.8006V30.1446C251.919 31.6915 250.49 32.9452 248.729 32.9452Z" fill="#6277D7"/>
<path d="M242.657 25.5605C242.352 25.5605 242.049 25.4583 241.817 25.2546L237.866 21.7858C234.205 24.5467 228.662 24.4081 225.194 21.3619C221.558 18.17 221.558 12.975 225.194 9.78094C228.831 6.58685 234.748 6.58685 238.385 9.78094C241.62 12.6213 241.977 17.0448 239.459 20.2345L243.497 23.7802C243.961 24.1874 243.961 24.8474 243.497 25.2546C243.264 25.4583 242.96 25.5605 242.657 25.5605ZM231.789 10.7814C230.391 10.7814 228.993 11.2482 227.928 12.1825C225.8 14.0516 225.8 17.0929 227.928 18.9609C228.96 19.8665 230.33 20.3648 231.789 20.3648C233.247 20.3648 234.618 19.8665 235.65 18.9609C235.689 18.9267 235.727 18.8919 235.764 18.8577C235.801 18.8047 235.845 18.7561 235.898 18.7103C235.923 18.6888 235.948 18.6678 235.975 18.6496C237.772 16.7683 237.664 13.9506 235.651 12.1819C234.585 11.2482 233.187 10.7814 231.789 10.7814Z" fill="#D2DCFF"/>
</svg>
