<svg width="300" height="230" viewBox="0 0 300 230" fill="none" xmlns="http://www.w3.org/2000/svg">
<path d="M23.4984 220.113H2.8102C1.25816 220.113 0 218.862 0 217.319V119.981C0 118.438 1.25816 117.187 2.8102 117.187H23.4984V220.113Z" fill="#86A2E2"/>
<path d="M83.105 220.113H23.4984V117.187H83.105C84.657 117.187 85.9152 118.438 85.9152 119.981V217.319C85.9152 218.862 84.657 220.113 83.105 220.113Z" fill="#AEC3FF"/>
<path d="M79.4096 125.749H30.0045V149.491H79.4096V125.749Z" fill="#D2DCFF"/>
<path d="M11.3116 220.113H5.65576V229.999H11.3116V220.113Z" fill="#D2DCFF"/>
<path d="M29.1542 220.113H23.4984V229.999H29.1542V220.113Z" fill="#D2DCFF"/>
<path d="M64.6434 220.113H58.9876V229.999H64.6434V220.113Z" fill="#D2DCFF"/>
<path d="M82.4853 220.113H76.8295V229.999H82.4853V220.113Z" fill="#D2DCFF"/>
<path d="M64.7336 146.216H47.1088C46.6851 146.216 46.3411 145.874 46.3411 145.452V145.408C46.3411 144.986 46.6845 144.644 47.1088 144.644H64.733C65.1568 144.644 65.5008 144.986 65.5008 145.408V145.452C65.5008 145.874 65.1573 146.216 64.7336 146.216Z" fill="#AEC3FF"/>
<path d="M79.4096 156.778H30.0045V180.521H79.4096V156.778Z" fill="#D2DCFF"/>
<path d="M64.7336 177.245H47.1088C46.6851 177.245 46.3411 176.903 46.3411 176.481V176.437C46.3411 176.015 46.6845 175.674 47.1088 175.674H64.733C65.1568 175.674 65.5008 176.015 65.5008 176.437V176.481C65.5008 176.903 65.1573 177.245 64.7336 177.245Z" fill="#AEC3FF"/>
<path d="M79.4096 187.808H30.0045V211.55H79.4096V187.808Z" fill="#D2DCFF"/>
<path d="M64.7336 208.274H47.1088C46.6851 208.274 46.3411 207.932 46.3411 207.511V207.466C46.3411 207.045 46.6845 206.703 47.1088 206.703H64.733C65.1568 206.703 65.5008 207.045 65.5008 207.466V207.511C65.5008 207.933 65.1573 208.274 64.7336 208.274Z" fill="#AEC3FF"/>
<path d="M5.65576 220.113H11.3116V222.659L5.65576 222.381V220.113Z" fill="#AEC3FF"/>
<path d="M23.4984 220.113H29.1542V223.535L23.4984 223.257V220.113Z" fill="#AEC3FF"/>
<path d="M58.9876 220.113H64.6434V225.724L58.9876 225.445V220.113Z" fill="#AEC3FF"/>
<path d="M82.4853 220.113V226.6L76.8295 226.321V220.113H82.4853Z" fill="#AEC3FF"/>
<path d="M61.0052 109.397H69.9964C70.4396 109.397 70.7837 109.782 70.7311 110.22L69.9705 116.538C69.9262 116.908 69.6105 117.187 69.2358 117.187H61.7659C61.3912 117.187 61.076 116.908 61.0312 116.538L60.2705 110.22C60.218 109.783 60.562 109.397 61.0052 109.397Z" fill="#D2DCFF"/>
<path d="M68.5878 106.819V103.947L66.8593 107.212V101.909L65.5008 105.248L64.1429 101.909V107.212L62.4144 103.947V106.819L59.8958 102.792L61.0052 109.397H65.5008H69.9964L71.1064 102.792L68.5878 106.819Z" fill="#6277D7"/>
<path d="M261.914 197.72C268.922 184.962 246.799 178.963 241.465 184.024C236.132 189.085 253.813 212.467 261.914 197.72Z" fill="#FE9ECC"/>
<path d="M271.215 193.826C284.968 193.826 278.744 169.366 272.864 169.366C265.491 169.367 255.325 193.826 271.215 193.826Z" fill="#FE9ECC"/>
<path d="M281.815 202.698C293.153 211.876 303.119 191.341 299.087 185.204C295.055 179.066 268.709 192.09 281.815 202.698Z" fill="#FE9ECC"/>
<path d="M267.356 208.771C265.442 204.368 262.641 200.265 259.03 196.578C252.888 190.305 246.427 187.363 246.362 187.334C246.17 187.248 245.943 187.333 245.856 187.524C245.77 187.715 245.854 187.94 246.047 188.027C246.11 188.055 252.459 190.95 258.501 197.128C262.042 200.747 264.787 204.772 266.66 209.088C266.873 209.577 267.07 210.072 267.26 210.57H268.078C267.852 209.965 267.614 209.365 267.356 208.771Z" fill="#FF78BA"/>
<path d="M272.522 174.382C272.547 174.174 272.397 173.985 272.187 173.96C271.977 173.935 271.788 174.084 271.762 174.292C271.738 174.5 269.809 190.891 269.908 210.569H270.672C270.574 190.942 272.497 174.589 272.522 174.382Z" fill="#FF78BA"/>
<path d="M295.268 187.952C295.15 187.777 294.913 187.73 294.738 187.847C294.683 187.883 289.166 191.573 283.491 197.641C280.4 200.946 276.886 205.377 274.312 210.57H275.167C277.683 205.606 281.06 201.358 284.039 198.171C289.654 192.164 295.108 188.515 295.163 188.478C295.338 188.362 295.385 188.126 295.268 187.952Z" fill="#FF78BA"/>
<path d="M270.672 210.57H269.908H268.078H267.261H256.593C256.183 210.57 255.892 210.968 256.019 211.356L256.692 213.411L257.033 214.45L261.908 229.323C262.04 229.727 262.419 230 262.845 230H280.418C280.844 230 281.223 229.727 281.355 229.323L286.231 214.45L286.572 213.411L287.245 211.356C287.372 210.968 287.081 210.57 286.671 210.57H275.165H274.31H270.672Z" fill="#D2DCFF"/>
<path d="M286.573 213.41L286.232 214.45H257.033L256.692 213.41H286.573Z" fill="#AEC3FF"/>
<path d="M187.133 58.946H94.8958C92.3004 58.946 90.1966 56.854 90.1966 54.2734V4.67245C90.1966 2.0918 92.3004 0 94.8958 0H187.133C189.728 0 191.832 2.0918 191.832 4.67245V54.2734C191.832 56.854 189.728 58.946 187.133 58.946Z" fill="#89AEFF"/>
<path d="M115.455 44.526C115.455 43.4944 116.296 42.6576 117.334 42.6576C110.022 42.6576 104.073 36.7429 104.073 29.4727C104.073 22.2025 110.022 16.2878 117.334 16.2878C124.645 16.2878 130.594 22.2025 130.594 29.4727C130.594 28.4412 131.435 27.6044 132.473 27.6044C133.511 27.6044 134.352 28.4406 134.352 29.4727C134.352 20.1424 126.718 12.5517 117.334 12.5517C107.951 12.5517 100.317 20.1429 100.317 29.4727C100.317 38.8031 107.951 46.3936 117.334 46.3936C116.296 46.3942 115.455 45.5575 115.455 44.526Z" fill="#E1E9FF"/>
<path d="M132.472 27.6049C131.435 27.6049 130.593 28.4411 130.593 29.4733C130.593 36.7435 124.645 42.6582 117.333 42.6582C116.296 42.6582 115.454 43.4944 115.454 44.5265C115.454 45.5587 116.295 46.3947 117.333 46.3947C126.717 46.3947 134.351 38.8042 134.351 29.4739C134.351 28.4411 133.51 27.6049 132.472 27.6049Z" fill="#6277D7"/>
<path d="M180.494 18.3298H146.662C146.105 18.3298 145.655 17.8815 145.655 17.3282C145.655 16.7748 146.105 16.3265 146.662 16.3265H180.494C181.051 16.3265 181.501 16.7748 181.501 17.3282C181.501 17.8809 181.051 18.3298 180.494 18.3298Z" fill="#E1E9FF"/>
<path d="M164.536 23.792H146.662C146.105 23.792 145.655 23.3438 145.655 22.7905C145.655 22.2372 146.105 21.7889 146.662 21.7889H164.536C165.092 21.7889 165.543 22.2372 165.543 22.7905C165.543 23.3438 165.092 23.792 164.536 23.792Z" fill="#E1E9FF"/>
<path d="M158.174 43.9731H146.662C146.105 43.9731 145.655 43.5248 145.655 42.9715C145.655 42.4181 146.105 41.9698 146.662 41.9698H158.174C158.73 41.9698 159.181 42.4181 159.181 42.9715C159.181 43.5248 158.73 43.9731 158.174 43.9731Z" fill="#6277D7"/>
<path d="M105.469 51.7163C105.469 45.4125 99.8777 40.3052 91.4931 40.3052C84.5249 40.3052 82.1301 44.1287 82.1301 44.1287C82.1301 44.1287 75.5437 45.544 75.5437 53.682C75.5437 61.2474 75.5437 74.2621 75.5437 74.2621H86.3661H86.9179H94.9106H103.599V57.3136C104.285 56.4751 105.469 54.6108 105.469 51.7163ZM92.4545 70.1463C91.8685 70.1463 91.2288 70.039 90.5613 69.8518V74.2615H80.9853V62.9166C80.9198 62.7347 80.8555 62.5399 80.7929 62.3351C76.5475 61.932 76.7234 54.9559 79.2462 54.9559C79.2804 54.9559 79.314 54.9588 79.3471 54.9635V54.9629C89.9517 58.3339 97.0834 52.8106 99.4168 48.973C99.4168 51.6511 102.398 54.2624 103.458 54.5006C103.301 64.0704 96.4154 70.1463 92.4545 70.1463Z" fill="#311643"/>
<path d="M90.5613 70.4591V69.8518C91.2287 70.039 91.8684 70.1464 92.4544 70.1464C96.4153 70.1464 103.301 64.0708 103.457 54.4999C102.397 54.2617 99.4161 51.6505 99.4161 48.9725C97.0828 52.8106 89.9511 58.3334 79.3464 54.9623V54.9629C79.3134 54.9582 79.2803 54.9553 79.2455 54.9553C76.7227 54.9553 76.5469 61.9315 80.7923 62.3346C80.8548 62.5394 80.9191 62.7336 80.9846 62.9161V70.5478L73.4847 74.0631V83.2674H98.4076V73.9757L90.5613 70.4591Z" fill="#FCBEB7"/>
<path d="M98.4082 83.2679V73.9763L90.5613 70.4591V69.8518C88.3424 69.2292 85.8202 67.7212 83.9678 66.3141L98.4082 83.2679Z" fill="#F9AFAB"/>
<path d="M85.4467 62.5804C86.8895 62.5804 88.0592 61.4174 88.0592 59.9827C88.0592 58.5481 86.8895 57.3851 85.4467 57.3851C84.0038 57.3851 82.8342 58.5481 82.8342 59.9827C82.8342 61.4174 84.0038 62.5804 85.4467 62.5804Z" fill="#F49795"/>
<path d="M103.122 57.8259C102.791 59.5704 102.235 61.1611 101.534 62.5764C100.153 62.5083 99.0538 61.3728 99.0538 59.9822C99.0538 58.5475 100.223 57.3845 101.666 57.3845C102.205 57.3851 102.706 57.5477 103.122 57.8259Z" fill="#F49795"/>
<path d="M98.7027 52.0831C96.7954 52.0831 95.2204 53.5248 95.0221 55.3702C93.9853 54.885 93.07 55.1479 92.5866 55.3685C92.3872 53.5243 90.8133 52.0831 88.9066 52.0831C86.8653 52.0831 85.2047 53.7342 85.2047 55.7639C85.2047 57.7936 86.8653 59.4447 88.9066 59.4447C90.9024 59.4447 92.5329 57.8663 92.6049 55.8988C92.9124 55.7228 93.8891 55.2746 95.0038 55.903C95.0776 57.8681 96.7081 59.4447 98.7022 59.4447C100.743 59.4447 102.404 57.7936 102.404 55.7639C102.405 53.7336 100.744 52.0831 98.7027 52.0831ZM88.9066 58.9631C87.1327 58.9631 85.6892 57.5278 85.6892 55.7633C85.6892 53.9995 87.1327 52.5643 88.9066 52.5643C90.6811 52.5643 92.1246 53.9995 92.1246 55.7633C92.1246 57.5278 90.6811 58.9631 88.9066 58.9631ZM98.7027 58.9631C96.9288 58.9631 95.4854 57.5278 95.4854 55.7633C95.4854 53.9995 96.9288 52.5643 98.7027 52.5643C100.477 52.5643 101.921 53.9995 101.921 55.7633C101.921 57.5278 100.477 58.9631 98.7027 58.9631Z" fill="white"/>
<path d="M98.705 58.4015C98.4135 58.4015 98.1769 58.1662 98.1769 57.8763V56.8951C98.1769 56.6053 98.4135 56.3699 98.705 56.3699C98.9966 56.3699 99.2332 56.6053 99.2332 56.8951V57.8763C99.2332 58.1662 98.9972 58.4015 98.705 58.4015Z" fill="#311643"/>
<path d="M89.0671 58.4015C88.7756 58.4015 88.5389 58.1662 88.5389 57.8763V56.8951C88.5389 56.6053 88.7756 56.3699 89.0671 56.3699C89.3586 56.3699 89.5953 56.6053 89.5953 56.8951V57.8763C89.5959 58.1662 89.3592 58.4015 89.0671 58.4015Z" fill="#311643"/>
<path d="M92.8392 64.3566C91.8961 64.3566 91.2541 64.004 90.8652 63.683C90.3748 63.2781 90.1712 62.8362 90.1623 62.8174C90.1074 62.696 90.1617 62.554 90.2839 62.4988C90.4055 62.4443 90.5489 62.4983 90.6037 62.6186C90.6315 62.6779 91.3013 64.0743 93.2469 63.8508C93.3803 63.8355 93.5001 63.93 93.5154 64.0626C93.5308 64.1947 93.4358 64.3144 93.3024 64.3297C93.1401 64.3479 92.9855 64.3566 92.8392 64.3566Z" fill="#311643"/>
<path d="M108.676 217.163L109.667 221.258L120.474 224.632L118.919 217.163H108.676Z" fill="#FCBEB7"/>
<path d="M72.2691 217.163L72.5635 222.221L71.8908 222.468L71.4464 224.634L82.2422 221.258L82.5119 217.163H72.2691Z" fill="#FCBEB7"/>
<path d="M128.808 226.222L120.023 222.468L120.473 224.632L109.667 221.258V224.337C109.667 225.42 110.237 226.401 111.132 226.953L112.061 229.595C112.142 229.823 112.358 229.976 112.602 229.976C112.918 229.976 113.174 229.721 113.174 229.407V227.689L120.56 229.976H128.031C129.117 229.976 129.998 229.1 129.998 228.02C129.998 227.238 129.53 226.532 128.808 226.222Z" fill="#2F3D6C"/>
<path d="M82.2517 224.307L82.2428 221.228L71.447 224.634L71.8908 222.468L63.1173 226.249C62.3962 226.56 61.93 227.267 61.9323 228.049C61.9353 229.129 62.8187 230.002 63.9051 229.999L71.3762 229.977L79.013 227.587L79.0183 229.386C79.0195 229.701 79.2762 229.955 79.5925 229.954C79.8357 229.953 80.0523 229.799 80.1319 229.571L81.1399 226.678C81.8315 226.104 82.2546 225.243 82.2517 224.307Z" fill="#2F3D6C"/>
<path d="M73.9031 114.172L69.9174 130.954C68.7666 135.801 68.3128 140.785 68.5707 145.758L72.2697 217.162H82.5125L86.886 143.058L108.677 217.162H118.92L100.885 114.171H73.9031V114.172Z" fill="#6277D7"/>
<path d="M87.456 78.728C89.2748 78.728 90.7295 76.9865 91.7103 75.2227H81.3381C82.9203 76.9818 85.0866 78.728 87.456 78.728Z" fill="white"/>
<path d="M105.332 80.1322C104.045 77.5744 101.908 75.5372 99.2834 74.3665L93.1283 71.6216C93.1283 71.9091 92.6256 73.5755 91.7097 75.2226C90.7289 76.9865 89.2742 78.728 87.4554 78.728C85.0861 78.728 82.9197 76.9818 81.3376 75.2226C79.7324 73.4377 78.7298 71.6398 78.7298 71.6398L71.5886 74.9292C68.6657 76.2759 66.5135 78.8666 65.7363 81.9753L61.5623 98.6644C60.8819 101.386 61.6656 104.263 63.6343 106.271C66.9207 105.125 73.0911 102.737 73.0911 102.737L73.9019 114.172H100.884L107.587 84.6175L105.332 80.1322Z" fill="#FE9ECC"/>
<path d="M87.7222 81.2371C86.222 81.2371 84.696 80.7829 83.1852 79.8881C81.9861 79.1775 80.794 78.1888 79.6421 76.9483C77.687 74.8435 76.4961 72.6954 76.4843 72.6743L76.885 72.4895C76.8968 72.5106 78.0511 74.5931 79.972 76.6579C81.0944 77.8655 82.2528 78.826 83.4148 79.5137C84.8547 80.3663 86.3041 80.7982 87.7222 80.7982C89.0606 80.7982 90.2662 80.354 91.3054 79.4785C92.1463 78.7697 92.884 77.7775 93.4972 76.5294C94.5511 74.3848 94.8391 72.4067 94.8421 72.385L95.2569 72.5698C95.2439 72.6614 94.9796 74.5062 93.8973 76.7125C93.2576 78.0175 92.4827 79.059 91.5946 79.8089C90.4727 80.7565 89.1697 81.2371 87.7222 81.2371Z" fill="white"/>
<path d="M103.801 171.154C106.509 171.154 108.704 168.971 108.704 166.279C108.704 163.586 106.509 161.404 103.801 161.404C101.093 161.404 98.8981 163.586 98.8981 166.279C98.8981 168.971 101.093 171.154 103.801 171.154Z" fill="#4A5EA3"/>
<path d="M78.1137 171.154C80.8214 171.154 83.0165 168.971 83.0165 166.279C83.0165 163.586 80.8214 161.404 78.1137 161.404C75.4059 161.404 73.2109 163.586 73.2109 166.279C73.2109 168.971 75.4059 171.154 78.1137 171.154Z" fill="#4A5EA3"/>
<path d="M71.6317 77.0967C71.6317 78.816 70.2302 80.2108 68.4999 80.2108C67.8053 80.2108 67.1638 79.9861 66.6445 79.6053C67.6206 77.7593 69.1319 76.2278 71.0015 75.2232C71.3974 75.7443 71.6317 76.3932 71.6317 77.0967Z" fill="#FF78BA"/>
<path d="M89.9546 118.035L110.718 117.255C111.809 117.214 112.752 116.488 113.066 115.449L122.144 85.3592C122.337 84.7202 121.84 84.0817 121.17 84.107L100.173 84.8956C99.222 84.9314 98.3994 85.564 98.1261 86.47L88.9809 116.783C88.7879 117.422 89.2842 118.06 89.9546 118.035Z" fill="#4A5EA3"/>
<path d="M112.331 102.231L115.963 105.845L116.583 103.791L112.331 102.231Z" fill="#2F3D6C"/>
<path d="M117.374 96.6359L112.14 96.9791C111.753 97.0044 111.454 97.3259 111.458 97.7109L110.937 97.7431C110.599 97.7642 110.324 98.0225 110.285 98.3575L110.22 98.8985H110.218C109.831 98.9032 109.52 99.2195 109.526 99.6044C109.529 99.8873 109.704 100.139 109.968 100.244L111.14 100.707C111.138 101.301 111.484 101.841 112.026 102.09L115.669 103.765C116.198 104.008 116.786 104.097 117.364 104.023C118.663 103.855 119.715 102.891 119.989 101.617L120.215 100.563C120.459 99.4278 120.106 98.2472 119.276 97.4304C118.769 96.931 118.088 96.6464 117.374 96.6359Z" fill="#FCBEB7"/>
<path d="M91.3562 76.5616L94.9282 85.2435C95.1301 85.7335 95.4245 86.1771 95.7875 86.5368L96.423 87.1665C96.5706 87.3126 96.7765 87.2286 96.7789 87.0215L96.7883 86.1296C96.7936 85.6197 96.691 85.098 96.4897 84.608L92.9177 75.9261C92.7005 75.3974 92.1747 75.1116 91.7433 75.2871C91.3119 75.4625 91.139 76.0335 91.3562 76.5616Z" fill="#6277D7"/>
<path d="M96.0531 81.7335L94.0921 79.0479C93.8395 78.7017 93.4482 78.4811 93.0198 78.4423L89.731 78.1459C89.2831 78.1055 88.8381 78.2487 88.4988 78.542L86.7857 80.0225C86.5384 80.236 86.3283 80.4889 86.1637 80.7705L84.0616 84.0871L64.1324 100.097C62.166 101.677 61.9925 104.596 63.757 106.395C65.5121 108.184 68.4309 108.097 70.075 106.206L86.9049 86.8508L90.4445 84.6867L93.057 84.776C93.6642 84.7965 94.1989 84.3828 94.3281 83.7925L94.4715 83.6235C94.7188 83.3319 94.8191 82.9441 94.743 82.5703L94.5937 81.8374L95.4381 82.3796C95.5615 82.4588 95.7155 82.474 95.8518 82.4206C96.128 82.3126 96.2277 81.9729 96.0531 81.7335Z" fill="#FCBEB7"/>
<path d="M73.0923 102.737L80.4665 94.2554L73.3726 106.69L73.0923 102.737Z" fill="#FF78BA"/>
<path d="M89.9547 118.035L102.146 121.373L101.485 117.602L89.9547 118.035Z" fill="#2F3D6C"/>
<path d="M104.243 78.3578C103.857 78.5174 103.434 78.6053 102.991 78.6053C101.192 78.6053 99.7336 77.1554 99.7336 75.3669C99.7336 75.1105 99.7637 74.8611 99.8204 74.6217C101.576 75.5065 103.089 76.7893 104.243 78.3578Z" fill="#FF78BA"/>
<path d="M66.9213 107.031C68.5942 107.031 69.9504 105.682 69.9504 104.019C69.9504 102.355 68.5942 101.007 66.9213 101.007C65.2483 101.007 63.8922 102.355 63.8922 104.019C63.8922 105.682 65.2483 107.031 66.9213 107.031Z" fill="#F9AFAB"/>
<path d="M182.426 55.6882C183.161 64.5667 189.648 70.1329 193.455 70.1329C194.026 70.1329 194.648 70.0313 195.297 69.8541V74.2826H204.953V63.0235C205.042 62.7906 205.129 62.5323 205.214 62.2565C209.495 61.8499 209.317 54.8156 206.774 54.8156C206.311 54.8156 206.002 55.2505 205.807 55.6882L205.176 56.3161V53.1381C205.176 53.1381 203.755 53.2707 200.958 49.0329C199.751 50.8537 190.126 53.7119 182.401 52.4321C182.401 52.4315 182.381 54.0124 182.426 55.6882Z" fill="#FCBEB7"/>
<path d="M194.121 40.3808C200.78 40.3808 202.112 43.9121 202.112 43.9121C204.953 43.9121 209.304 49.077 206.684 54.8151L206.67 54.8285L205.174 56.3161V53.1381C205.174 53.1381 203.754 53.2707 200.957 49.0329C199.75 50.8537 190.124 53.7119 182.4 52.4321C182.4 52.4321 182.38 54.013 182.424 55.6882C182.424 55.69 182.424 55.6917 182.424 55.6935C179.54 47.3947 185.331 40.3808 194.121 40.3808Z" fill="#311643"/>
<path d="M196.984 56.6546C197.279 56.6546 197.517 56.4175 197.517 56.1247V55.1354C197.517 54.8426 197.279 54.6056 196.984 54.6056C196.69 54.6056 196.451 54.8426 196.451 55.1354V56.1247C196.452 56.4175 196.69 56.6546 196.984 56.6546Z" fill="#311643"/>
<path d="M187.106 56.6546C187.401 56.6546 187.639 56.4175 187.639 56.1247V55.1354C187.639 54.8426 187.401 54.6056 187.106 54.6056C186.812 54.6056 186.574 54.8426 186.574 55.1354V56.1247C186.574 56.4175 186.813 56.6546 187.106 56.6546Z" fill="#311643"/>
<path d="M193.067 64.2951C194.018 64.2951 194.665 63.9395 195.058 63.6156C195.552 63.2072 195.758 62.7618 195.767 62.7431C195.822 62.621 195.767 62.4773 195.644 62.4222C195.522 62.367 195.378 62.4215 195.322 62.5429C195.294 62.6028 194.619 64.0112 192.657 63.7853C192.523 63.77 192.402 63.8649 192.386 63.9987C192.37 64.1325 192.466 64.2522 192.6 64.2675C192.763 64.2862 192.919 64.2951 193.067 64.2951Z" fill="#311643"/>
<path d="M200.521 62.5036C201.976 62.5036 203.156 61.3308 203.156 59.8842C203.156 58.4375 201.976 57.2649 200.521 57.2649C199.066 57.2649 197.887 58.4375 197.887 59.8842C197.887 61.3308 199.066 62.5036 200.521 62.5036Z" fill="#F49795"/>
<path d="M182.699 57.7097C183.033 59.4689 183.593 61.0724 184.3 62.5C185.694 62.432 186.801 61.2866 186.801 59.8842C186.801 58.4378 185.622 57.2655 184.168 57.2655C183.624 57.2655 183.119 57.4292 182.699 57.7097Z" fill="#F49795"/>
<path d="M183.374 55.63C183.374 57.6767 185.049 59.3415 187.106 59.3415C189.118 59.3415 190.761 57.7518 190.836 55.7703C191.952 55.1418 192.946 55.5931 193.254 55.7674C193.328 57.7507 194.972 59.3421 196.983 59.3421C199.042 59.3421 200.716 57.6773 200.716 55.6306C200.716 53.5839 199.041 51.9193 196.983 51.9193C195.061 51.9193 193.473 53.3721 193.273 55.2316C192.785 55.0093 191.863 54.744 190.817 55.2334C190.617 53.3733 189.029 51.9193 187.106 51.9193C185.049 51.9187 183.374 53.5834 183.374 55.63ZM193.74 55.63C193.74 53.8515 195.195 52.404 196.985 52.404C198.774 52.404 200.229 53.8509 200.229 55.63C200.229 57.4091 198.774 58.8562 196.985 58.8562C195.195 58.8562 193.74 57.4091 193.74 55.63ZM183.862 55.63C183.862 53.8515 185.317 52.404 187.106 52.404C188.896 52.404 190.351 53.8509 190.351 55.63C190.351 57.4091 188.896 58.8562 187.106 58.8562C185.318 58.8562 183.862 57.4091 183.862 55.63Z" fill="white"/>
<path d="M195.297 74.282V69.8535C197.481 69.2568 199.967 67.7952 201.835 66.4016L195.297 74.282Z" fill="#F9AFAB"/>
<path d="M172.213 217.208H182.439L192.358 164.756L199.634 142.023L217.249 217.208H227.475L217.947 132.858H180.167L172.213 217.208Z" fill="#6277D7"/>
<path d="M181.627 221.296V228.482C181.627 229.32 180.944 229.999 180.101 229.999H159.604C159.409 229.999 159.251 229.842 159.251 229.648V228.264C159.251 227.659 159.599 227.108 160.146 226.845L171.704 221.296H181.627Z" fill="#2F3D6C"/>
<path d="M218.362 221.296V228.482C218.362 229.32 219.045 229.999 219.888 229.999H240.385C240.58 229.999 240.738 229.842 240.738 229.648V228.264C240.738 227.659 240.39 227.108 239.842 226.845L228.285 221.296H218.362Z" fill="#2F3D6C"/>
<path d="M182.439 217.208L181.669 221.296H171.704L172.213 217.208H182.439Z" fill="#FCBEB7"/>
<path d="M227.476 217.208L228.285 221.296H218.362L217.25 217.208H227.476Z" fill="#FCBEB7"/>
<path d="M218.151 134.667L179.793 136.822L180.167 132.858H217.947" fill="#4A5EA3"/>
<path d="M195.31 70.5038L180.694 76.8116C179.623 77.2699 178.71 78.028 178.066 78.9939L172.213 87.7626L180.466 95.0029L182.67 93.1306L180.168 132.859H217.948L215.633 106.954L216.146 93.1306L218.107 95.0732L226.825 88.4093L222.141 80.8187C220.982 78.9416 219.307 77.4324 217.315 76.4707L204.95 70.5032C204.949 70.5038 199.341 74.1623 195.31 70.5038Z" fill="#89AEFF"/>
<path d="M192.204 71.8439C194.253 73.5515 196.814 74.4803 199.519 74.4803C202.366 74.4803 205.055 73.45 207.153 71.5676L206.772 71.3834C204.763 73.1355 202.215 74.0919 199.518 74.0919C196.972 74.0919 194.559 73.2394 192.606 71.6703L192.204 71.8439Z" fill="white"/>
<path d="M217.783 77.71C217.783 79.4932 219.237 80.9384 221.03 80.9384C221.406 80.9384 221.766 80.875 222.102 80.7582C221.065 79.1017 219.624 77.7357 217.918 76.7851C217.83 77.0779 217.783 77.3884 217.783 77.71Z" fill="#4A62D3"/>
<path d="M177.198 80.2929C177.642 80.5188 178.145 80.6468 178.678 80.6468C180.471 80.6468 181.925 79.201 181.925 77.4183C181.925 77.0469 181.862 76.6895 181.746 76.3574L180.694 76.8116C179.623 77.2699 178.71 78.0286 178.066 78.9939L177.198 80.2929Z" fill="#4A62D3"/>
<path d="M215.82 171.275C218.524 171.275 220.716 169.095 220.716 166.407C220.716 163.719 218.524 161.54 215.82 161.54C213.117 161.54 210.925 163.719 210.925 166.407C210.925 169.095 213.117 171.275 215.82 171.275Z" fill="#4A5EA3"/>
<path d="M183.164 171.275C185.868 171.275 188.06 169.095 188.06 166.407C188.06 163.719 185.868 161.54 183.164 161.54C180.461 161.54 178.269 163.719 178.269 166.407C178.269 169.095 180.461 171.275 183.164 171.275Z" fill="#4A5EA3"/>
<path d="M130.469 78.2604L130.88 78.1924L130.943 77.9429C131.064 77.4729 131.474 77.1337 131.961 77.1009L137.711 76.7148L141.712 75.097L139.479 72.3257C139.109 71.8663 139.161 71.2009 139.597 70.8036L144.309 74.4134C144.771 74.7678 145.155 75.2132 145.436 75.7213L146.91 78.3929L146.903 78.4024L168.447 93.3747L172.214 87.762L180.466 95.0023L170.136 104.085C169.524 104.611 168.613 104.601 168.012 104.063L143.762 82.3673L139.121 82.8061C138.074 82.9052 137.017 82.8003 136.011 82.4981L133.547 81.7576C133.128 81.632 132.91 81.1749 133.077 80.773L131.322 80.4373C130.993 80.3745 130.746 80.1064 130.711 79.7761L130.681 79.4938H130.573C130.229 79.4938 129.949 79.2156 129.949 78.873C129.947 78.5696 130.168 78.3103 130.469 78.2604Z" fill="#FCBEB7"/>
<path d="M209.55 129.826L213.392 128.121C213.658 128.003 213.865 127.783 213.964 127.51L214.521 125.985L212.579 126.459L211.96 127.781C211.752 128.226 211.226 128.426 210.772 128.232L211.58 125.805C211.731 125.419 212.023 125.102 212.397 124.92L216.454 122.936L223.453 100.363L218.106 95.0733L226.824 88.4093L231.921 97.2303C232.622 98.4431 232.708 99.913 232.152 101.197L218.004 133.367L215.197 133.496C214.859 133.511 214.54 133.342 214.367 133.054L214.061 132.546L212.584 132.666C212.267 132.692 211.96 132.554 211.77 132.3L211.423 131.833L211.216 131.888C210.65 132.036 210.055 131.779 209.779 131.266L208.753 131.607C208.521 130.899 208.865 130.13 209.55 129.826Z" fill="#FCBEB7"/>
<path d="M228.944 99.2705C228.944 100.86 230.086 102.185 231.6 102.477L232.153 101.197C232.709 99.913 232.623 98.4425 231.922 97.2303L231.291 96.1389C229.934 96.5403 228.944 97.7907 228.944 99.2705Z" fill="#F9AFAB"/>
<path d="M165.681 101.976L168.01 104.063C168.612 104.603 169.522 104.612 170.135 104.086L172.418 102.126C171.759 100.926 170.478 100.111 169.006 100.111C167.596 100.111 166.361 100.858 165.681 101.976Z" fill="#F9AFAB"/>
</svg>
